<svg version="1.1" xmlns="http://www.w3.org/2000/svg" viewBox="0 0 680.9489799531136 1510.5868065569884" width="1361.8979599062272" height="3021.173613113977">
  <!-- svg-source:excalidraw -->
  
  <defs>
    <style class="style-fonts">
      @font-face {
        font-family: "Virgil";
        src: url("https://excalidraw.com/Virgil.woff2");
      }
      @font-face {
        font-family: "Cascadia";
        src: url("https://excalidraw.com/Cascadia.woff2");
      }
    </style>
    
  </defs>
  <rect x="0" y="0" width="680.9489799531136" height="1510.5868065569884" fill="#ffffff"></rect><g transform="translate(224.22295781917688 10) rotate(0 61.6943359375 11.5)"><text x="0" y="0" font-family="Helvetica, Segoe UI Emoji" font-size="20px" fill="#1e1e1e" text-anchor="start" style="white-space: pre;" direction="ltr" dominant-baseline="text-before-edge">CSS Function</text></g><g stroke-linecap="round"><g transform="translate(275.1148117622801 49.909218695192976) rotate(0 -101.80487274039831 38.510414240876344)"><path d="M0 0 C-33.93 12.84, -169.67 64.18, -203.61 77.02 M0 0 C-33.93 12.84, -169.67 64.18, -203.61 77.02" stroke="#1e1e1e" stroke-width="1" fill="none"></path></g><g transform="translate(275.1148117622801 49.909218695192976) rotate(0 -101.80487274039831 38.510414240876344)"><path d="M-180.87 57.45 C-188.53 64.04, -196.19 70.64, -203.61 77.02 M-180.87 57.45 C-189.08 64.52, -197.29 71.58, -203.61 77.02" stroke="#1e1e1e" stroke-width="1" fill="none"></path></g><g transform="translate(275.1148117622801 49.909218695192976) rotate(0 -101.80487274039831 38.510414240876344)"><path d="M-173.61 76.64 C-183.72 76.77, -193.82 76.9, -203.61 77.02 M-173.61 76.64 C-184.44 76.78, -195.27 76.92, -203.61 77.02" stroke="#1e1e1e" stroke-width="1" fill="none"></path></g></g><mask></mask><g stroke-linecap="round"><g transform="translate(275.6035274863462 55.00417632246172) rotate(0 -0.7484662073295567 56.78915195201262)"><path d="M0 0 C-0.25 18.93, -1.25 94.65, -1.5 113.58 M0 0 C-0.25 18.93, -1.25 94.65, -1.5 113.58" stroke="#1e1e1e" stroke-width="1" fill="none"></path></g><g transform="translate(275.6035274863462 55.00417632246172) rotate(0 -0.7484662073295567 56.78915195201262)"><path d="M-11.39 85.25 C-8.56 93.34, -5.74 101.43, -1.5 113.58 M-11.39 85.25 C-9.38 90.99, -7.38 96.72, -1.5 113.58" stroke="#1e1e1e" stroke-width="1" fill="none"></path></g><g transform="translate(275.6035274863462 55.00417632246172) rotate(0 -0.7484662073295567 56.78915195201262)"><path d="M9.13 85.53 C6.1 93.54, 3.06 101.55, -1.5 113.58 M9.13 85.53 C6.98 91.2, 4.83 96.88, -1.5 113.58" stroke="#1e1e1e" stroke-width="1" fill="none"></path></g></g><mask></mask><g stroke-linecap="round"><g transform="translate(276.09993952102747 54.69632389785329) rotate(0 71.57376464383736 52.346456649378524)"><path d="M0 0 C23.86 17.45, 119.29 87.24, 143.15 104.69 M0 0 C23.86 17.45, 119.29 87.24, 143.15 104.69" stroke="#1e1e1e" stroke-width="1" fill="none"></path></g><g transform="translate(276.09993952102747 54.69632389785329) rotate(0 71.57376464383736 52.346456649378524)"><path d="M114.34 96.33 C124.25 99.21, 134.16 102.09, 143.15 104.69 M114.34 96.33 C121.19 98.32, 128.04 100.31, 143.15 104.69" stroke="#1e1e1e" stroke-width="1" fill="none"></path></g><g transform="translate(276.09993952102747 54.69632389785329) rotate(0 71.57376464383736 52.346456649378524)"><path d="M126.45 79.77 C132.2 88.35, 137.94 96.92, 143.15 104.69 M126.45 79.77 C130.42 85.7, 134.39 91.63, 143.15 104.69" stroke="#1e1e1e" stroke-width="1" fill="none"></path></g></g><mask></mask><g stroke-linecap="round"><g transform="translate(293.10493782534303 59.62965900220661) rotate(0 141.7429526003981 22.03261321370519)"><path d="M0 0 C47.25 7.34, 236.24 36.72, 283.49 44.07 M0 0 C47.25 7.34, 236.24 36.72, 283.49 44.07" stroke="#1e1e1e" stroke-width="1" fill="none"></path></g><g transform="translate(293.10493782534303 59.62965900220661) rotate(0 141.7429526003981 22.03261321370519)"><path d="M254.05 49.87 C262 48.31, 269.94 46.74, 283.49 44.07 M254.05 49.87 C265.69 47.58, 277.33 45.28, 283.49 44.07" stroke="#1e1e1e" stroke-width="1" fill="none"></path></g><g transform="translate(293.10493782534303 59.62965900220661) rotate(0 141.7429526003981 22.03261321370519)"><path d="M257.21 29.6 C264.3 33.5, 271.39 37.41, 283.49 44.07 M257.21 29.6 C267.6 35.32, 277.99 41.04, 283.49 44.07" stroke="#1e1e1e" stroke-width="1" fill="none"></path></g></g><mask></mask><g transform="translate(10 146.1477347831351) rotate(0 24.443359375 11.5)"><text x="0" y="0" font-family="Helvetica, Segoe UI Emoji" font-size="20px" fill="#1e1e1e" text-anchor="start" style="white-space: pre;" direction="ltr" dominant-baseline="text-before-edge">calc()</text></g><g transform="translate(215.84167555920868 182.74753991378748) rotate(0 21.1083984375 11.5)"><text x="0" y="0" font-family="Helvetica, Segoe UI Emoji" font-size="20px" fill="#1e1e1e" text-anchor="start" style="white-space: pre;" direction="ltr" dominant-baseline="text-before-edge">attr()</text></g><g transform="translate(408.8382087016251 169.05580332932004) rotate(0 22.7734375 11.5)"><text x="0" y="0" font-family="Helvetica, Segoe UI Emoji" font-size="20px" fill="#1e1e1e" text-anchor="start" style="white-space: pre;" direction="ltr" dominant-baseline="text-before-edge">min()</text></g><g transform="translate(585.33770004033 118.03311210576067) rotate(0 25.5517578125 11.5)"><text x="0" y="0" font-family="Helvetica, Segoe UI Emoji" font-size="20px" fill="#1e1e1e" text-anchor="start" style="white-space: pre;" direction="ltr" dominant-baseline="text-before-edge">max()</text></g><g stroke-linecap="round"><g transform="translate(293.8784170421725 46.80375736194037) rotate(0 158.20920916164866 -3.3267302634267253)"><path d="M0 0 C52.74 -1.11, 263.68 -5.54, 316.42 -6.65 M0 0 C52.74 -1.11, 263.68 -5.54, 316.42 -6.65" stroke="#1e1e1e" stroke-width="1" fill="none"></path></g><g transform="translate(293.8784170421725 46.80375736194037) rotate(0 158.20920916164866 -3.3267302634267253)"><path d="M288.45 4.2 C294.1 2, 299.76 -0.19, 316.42 -6.65 M288.45 4.2 C295.6 1.42, 302.75 -1.35, 316.42 -6.65" stroke="#1e1e1e" stroke-width="1" fill="none"></path></g><g transform="translate(293.8784170421725 46.80375736194037) rotate(0 158.20920916164866 -3.3267302634267253)"><path d="M288.02 -16.32 C293.76 -14.37, 299.5 -12.41, 316.42 -6.65 M288.02 -16.32 C295.28 -13.85, 302.54 -11.38, 316.42 -6.65" stroke="#1e1e1e" stroke-width="1" fill="none"></path></g></g><mask></mask><g transform="translate(629.8454643281136 39.12283936795575) rotate(0 20.5517578125 11.5)"><text x="0" y="0" font-family="Helvetica, Segoe UI Emoji" font-size="20px" fill="#1e1e1e" text-anchor="start" style="white-space: pre;" direction="ltr" dominant-baseline="text-before-edge">var()</text></g><g stroke-linecap="round" transform="translate(101.47065166182 351.4545167545657) rotate(0 250.38792140006797 200.27147075144785)"><path d="M32 0 M32 0 C171.66 0, 311.33 0, 468.78 0 M32 0 C151.43 0, 270.86 0, 468.78 0 M468.78 0 C490.11 0, 500.78 10.67, 500.78 32 M468.78 0 C490.11 0, 500.78 10.67, 500.78 32 M500.78 32 C500.78 128.16, 500.78 224.31, 500.78 368.54 M500.78 32 C500.78 137.32, 500.78 242.65, 500.78 368.54 M500.78 368.54 C500.78 389.88, 490.11 400.54, 468.78 400.54 M500.78 368.54 C500.78 389.88, 490.11 400.54, 468.78 400.54 M468.78 400.54 C327.83 400.54, 186.88 400.54, 32 400.54 M468.78 400.54 C346.02 400.54, 223.27 400.54, 32 400.54 M32 400.54 C10.67 400.54, 0 389.88, 0 368.54 M32 400.54 C10.67 400.54, 0 389.88, 0 368.54 M0 368.54 C0 253.02, 0 137.49, 0 32 M0 368.54 C0 246.69, 0 124.83, 0 32 M0 32 C0 10.67, 10.67 0, 32 0 M0 32 C0 10.67, 10.67 0, 32 0" stroke="#1e1e1e" stroke-width="1" fill="none"></path></g><g stroke-linecap="round"><g transform="translate(245.73414598870067 352.7436487826126) rotate(0 -2.0953205649919937 199.13241678039594)"><path d="M0 0 C-0.7 66.38, -3.49 331.89, -4.19 398.26 M0 0 C-0.7 66.38, -3.49 331.89, -4.19 398.26" stroke="#1e1e1e" stroke-width="1" fill="none"></path></g></g><mask></mask><g transform="translate(121.82354508375374 321.39657564687514) rotate(0 68.08541185749155 7.13640401795783)" stroke="none"><path fill="#1e1e1e" d="M 0.03,-1.56 Q 0.03,-1.56 2.55,-1.47 5.08,-1.39 8.16,-1.22 11.23,-1.05 14.64,-0.89 18.05,-0.74 21.61,-0.60 25.17,-0.46 28.95,-0.27 32.73,-0.08 36.68,0.13 40.63,0.35 44.72,0.57 48.82,0.79 53.06,0.93 57.29,1.07 61.31,1.13 65.34,1.19 69.10,1.22 72.87,1.24 76.13,1.32 79.39,1.39 82.26,1.63 85.14,1.86 88.06,2.21 90.98,2.56 93.50,2.92 96.01,3.28 98.00,3.59 99.99,3.89 101.58,4.10 103.17,4.30 104.44,4.38 105.71,4.46 106.83,4.44 107.94,4.43 109.77,4.32 111.59,4.21 113.07,4.10 114.55,3.99 115.93,3.89 117.30,3.80 118.51,3.85 119.72,3.90 120.78,4.05 121.84,4.20 123.22,4.08 124.61,3.95 125.75,3.90 126.89,3.85 125.50,4.89 124.10,5.94 122.72,5.95 121.35,5.96 120.37,5.48 119.39,5.00 118.13,4.43 116.87,3.87 115.82,3.44 114.77,3.01 113.47,1.94 112.17,0.88 113.16,-1.51 114.15,-3.92 115.51,-4.25 116.88,-4.57 119.16,-4.51 121.45,-4.45 122.87,-4.32 124.28,-4.18 125.82,-3.85 127.35,-3.52 128.93,-2.83 130.51,-2.14 131.75,-1.47 133.00,-0.80 134.56,0.11 136.12,1.03 137.23,1.97 138.34,2.91 138.85,4.32 139.37,5.72 139.08,6.91 138.78,8.09 137.70,9.12 136.62,10.14 135.25,10.80 133.88,11.45 132.49,12.00 131.09,12.56 129.67,13.11 128.25,13.67 126.67,14.20 125.10,14.72 123.59,15.20 122.09,15.67 119.97,16.65 117.86,17.63 117.43,17.76 117.00,17.88 116.55,17.87 116.11,17.85 115.69,17.69 115.27,17.53 114.92,17.25 114.58,16.97 114.34,16.59 114.10,16.21 114.00,15.77 113.90,15.33 113.94,14.89 113.98,14.44 114.16,14.03 114.34,13.62 114.64,13.29 114.95,12.96 115.34,12.75 115.73,12.53 116.17,12.45 116.61,12.37 117.06,12.44 117.50,12.50 117.90,12.71 118.30,12.91 118.61,13.23 118.92,13.55 119.12,13.95 119.31,14.35 119.37,14.80 119.42,15.24 119.33,15.68 119.24,16.12 119.02,16.51 118.80,16.90 118.46,17.19 118.12,17.49 117.71,17.66 117.30,17.83 116.85,17.86 116.40,17.89 115.97,17.78 115.54,17.67 115.16,17.42 114.79,17.18 114.51,16.83 114.23,16.47 114.08,16.05 113.93,15.63 113.93,15.18 113.92,14.74 114.06,14.31 114.19,13.88 114.46,13.52 114.72,13.16 115.09,12.90 115.46,12.65 115.45,12.65 115.45,12.65 117.89,11.60 120.32,10.56 121.72,10.02 123.11,9.49 124.50,8.90 125.89,8.30 127.24,7.63 128.60,6.97 130.58,6.48 132.56,5.99 131.41,5.24 130.27,4.49 129.21,3.97 128.15,3.45 127.14,3.05 126.13,2.64 125.02,2.47 123.91,2.29 122.69,2.27 121.47,2.26 120.26,2.31 119.05,2.36 117.56,2.18 116.08,2.01 117.21,-0.46 118.34,-2.94 119.68,-2.38 121.02,-1.82 122.41,-1.14 123.81,-0.46 125.15,0.37 126.49,1.21 127.38,2.02 128.27,2.83 129.09,3.81 129.92,4.79 130.09,6.33 130.27,7.87 128.64,9.13 127.02,10.40 125.81,10.34 124.60,10.29 123.49,10.23 122.37,10.17 121.03,9.90 119.69,9.63 118.50,9.39 117.30,9.15 115.92,9.05 114.53,8.96 113.02,8.83 111.51,8.70 109.60,8.50 107.69,8.29 106.45,8.12 105.21,7.94 103.90,7.65 102.59,7.36 101.06,6.99 99.52,6.61 97.58,6.24 95.64,5.88 93.15,5.53 90.67,5.17 87.80,4.83 84.92,4.49 82.13,4.26 79.33,4.04 76.09,3.96 72.85,3.89 69.08,3.87 65.30,3.85 61.25,3.79 57.21,3.73 52.94,3.60 48.68,3.47 44.58,3.26 40.49,3.05 36.54,2.84 32.60,2.64 28.83,2.47 25.07,2.30 21.50,2.18 17.94,2.07 14.52,1.95 11.10,1.83 8.06,1.71 5.02,1.59 2.49,1.57 -0.03,1.56 -0.21,1.53 -0.40,1.50 -0.57,1.43 -0.75,1.36 -0.90,1.25 -1.05,1.14 -1.18,1.00 -1.30,0.86 -1.38,0.69 -1.47,0.52 -1.51,0.34 -1.55,0.15 -1.55,-0.02 -1.54,-0.21 -1.49,-0.40 -1.44,-0.58 -1.35,-0.74 -1.26,-0.91 -1.14,-1.05 -1.01,-1.18 -0.85,-1.29 -0.69,-1.39 -0.52,-1.46 -0.34,-1.52 -0.15,-1.54 0.03,-1.56 0.03,-1.56 L 0.03,-1.56 Z"></path></g><g transform="translate(127.18402542725033 313.2577271712871) rotate(0 -2.5936566773271466 10.799847870799567)" stroke="none"><path fill="#1e1e1e" d="M 2.03,1.64 Q 2.03,1.64 1.04,2.81 0.06,3.98 -0.82,5.01 -1.72,6.04 -2.59,6.93 -3.46,7.83 -4.39,8.60 -5.32,9.36 -6.96,10.39 -8.60,11.42 -10.04,12.08 -11.49,12.73 -12.64,13.14 -13.79,13.55 -13.95,13.67 -14.11,13.78 -14.48,13.83 -14.85,13.88 -15.22,13.85 -15.59,13.81 -15.94,13.69 -16.29,13.56 -16.60,13.36 -16.91,13.15 -17.17,12.88 -17.42,12.61 -17.60,12.28 -17.78,11.96 -17.88,11.60 -17.97,11.24 -17.98,10.86 -17.99,10.49 -17.91,10.13 -17.83,9.77 -17.66,9.43 -17.50,9.10 -17.26,8.82 -17.02,8.53 -16.72,8.31 -16.41,8.09 -16.07,7.95 -15.72,7.82 -14.07,8.48 -12.41,9.14 -10.99,9.23 -9.58,9.31 -8.09,9.77 -6.60,10.24 -4.88,10.89 -3.17,11.55 -1.57,12.23 0.01,12.91 1.47,13.56 2.92,14.20 4.13,14.77 5.33,15.35 6.29,15.85 7.25,16.35 9.48,17.91 11.72,19.48 11.99,19.83 12.27,20.18 12.41,20.60 12.56,21.02 12.57,21.47 12.57,21.92 12.43,22.34 12.29,22.77 12.03,23.12 11.76,23.48 11.40,23.74 11.03,23.99 10.60,24.11 10.17,24.24 9.72,24.22 9.28,24.20 8.86,24.04 8.45,23.88 8.10,23.59 7.76,23.31 7.53,22.93 7.29,22.55 7.19,22.11 7.09,21.68 7.13,21.23 7.18,20.79 7.36,20.38 7.54,19.98 7.85,19.65 8.15,19.32 8.54,19.11 8.94,18.89 9.37,18.82 9.81,18.74 10.26,18.81 10.70,18.88 11.09,19.08 11.49,19.29 11.80,19.61 12.11,19.93 12.30,20.33 12.49,20.73 12.55,21.18 12.60,21.62 12.51,22.06 12.42,22.49 12.19,22.88 11.96,23.26 11.63,23.56 11.29,23.85 10.88,24.02 10.46,24.19 10.02,24.22 9.57,24.24 9.14,24.13 8.71,24.02 8.34,23.77 7.97,23.52 7.97,23.52 7.97,23.52 6.92,22.67 5.87,21.81 4.46,20.91 3.05,20.00 1.99,19.47 0.94,18.93 -0.46,18.38 -1.87,17.83 -3.36,17.32 -4.85,16.81 -6.47,16.40 -8.09,15.99 -9.58,15.68 -11.07,15.37 -13.16,14.80 -15.25,14.23 -16.18,13.57 -17.12,12.91 -15.62,13.35 -14.11,13.78 -14.48,13.83 -14.85,13.88 -15.22,13.85 -15.59,13.81 -15.94,13.69 -16.29,13.56 -16.60,13.36 -16.91,13.15 -17.17,12.88 -17.42,12.61 -17.60,12.28 -17.78,11.96 -17.88,11.60 -17.97,11.24 -17.98,10.87 -17.99,10.49 -17.91,10.13 -17.83,9.77 -17.66,9.43 -17.50,9.10 -17.26,8.82 -17.02,8.53 -16.72,8.31 -16.41,8.09 -16.07,7.95 -15.72,7.82 -15.24,7.66 -14.75,7.51 -13.60,7.19 -12.44,6.87 -11.19,6.37 -9.93,5.87 -8.53,4.98 -7.14,4.10 -6.36,3.36 -5.58,2.62 -4.74,1.69 -3.91,0.76 -2.97,-0.43 -2.03,-1.64 -1.80,-1.86 -1.57,-2.08 -1.30,-2.24 -1.03,-2.40 -0.73,-2.48 -0.43,-2.57 -0.11,-2.59 0.19,-2.60 0.50,-2.54 0.81,-2.48 1.10,-2.34 1.38,-2.21 1.63,-2.01 1.87,-1.81 2.06,-1.56 2.25,-1.31 2.38,-1.02 2.50,-0.73 2.55,-0.42 2.61,-0.11 2.58,0.19 2.56,0.51 2.46,0.81 2.36,1.11 2.19,1.37 2.03,1.64 2.03,1.64 L 2.03,1.64 Z"></path></g><g transform="translate(136.91216204488097 283.3460159652568) rotate(0 32.88056302584843 4.777484814394484)" stroke="none"><path fill="#1e1e1e" d="M -0.47,-2.51 Q -0.47,-2.51 0.50,-2.74 1.48,-2.96 2.54,-3.16 3.60,-3.36 4.90,-2.93 6.19,-2.50 6.94,-1.17 7.69,0.15 7.73,2.18 7.76,4.22 7.73,5.56 7.70,6.90 7.69,8.16 7.68,9.42 7.66,10.76 7.64,12.09 7.54,13.65 7.44,15.20 7.30,16.67 7.16,18.15 7.06,19.25 6.96,20.35 6.86,21.70 6.76,23.05 5.61,22.37 4.47,21.68 5.53,20.83 6.58,19.98 7.59,19.49 8.60,18.99 9.69,18.47 10.77,17.95 11.91,17.41 13.05,16.87 14.24,16.34 15.44,15.82 16.61,15.34 17.79,14.87 18.88,14.40 19.97,13.93 20.98,13.47 22.00,13.02 23.48,12.25 24.97,11.47 25.99,10.84 27.01,10.20 26.38,9.16 25.75,8.12 25.72,6.79 25.68,5.46 26.94,5.66 28.19,5.86 29.61,6.20 31.03,6.54 33.11,7.44 35.20,8.35 36.23,8.74 37.26,9.12 39.03,9.63 40.80,10.15 40.44,8.88 40.08,7.62 39.08,6.84 38.08,6.06 36.96,5.88 35.83,5.71 34.47,5.65 33.12,5.60 31.83,5.62 30.54,5.64 28.86,4.36 27.18,3.09 27.85,0.90 28.53,-1.28 29.45,-2.00 30.36,-2.72 31.34,-3.49 32.32,-4.26 33.56,-5.18 34.79,-6.11 36.06,-7.02 37.33,-7.92 38.37,-8.67 39.40,-9.42 40.97,-10.54 42.54,-11.66 43.72,-12.32 44.89,-12.97 46.65,-13.04 48.41,-13.10 49.37,-12.47 50.33,-11.84 51.08,-10.40 51.83,-8.96 52.58,-7.78 53.33,-6.59 54.46,-5.48 55.60,-4.36 57.25,-3.35 58.91,-2.34 60.44,-1.74 61.97,-1.15 63.35,-1.02 64.72,-0.88 63.67,-0.13 62.61,0.61 61.96,-0.55 61.31,-1.71 60.66,-2.62 60.01,-3.52 59.21,-4.34 58.41,-5.16 57.21,-6.11 56.02,-7.07 54.65,-7.96 53.28,-8.86 52.07,-9.52 50.86,-10.17 49.79,-10.62 48.71,-11.07 46.00,-11.64 43.30,-12.20 42.87,-12.30 42.44,-12.41 42.07,-12.64 41.70,-12.87 41.42,-13.21 41.15,-13.55 40.99,-13.96 40.84,-14.37 40.82,-14.81 40.81,-15.25 40.93,-15.67 41.06,-16.09 41.31,-16.45 41.56,-16.80 41.92,-17.06 42.27,-17.32 42.69,-17.45 43.11,-17.59 43.54,-17.58 43.98,-17.57 44.40,-17.42 44.81,-17.27 45.15,-17.00 45.50,-16.73 45.74,-16.36 45.97,-16.00 46.08,-15.57 46.19,-15.15 46.16,-14.71 46.13,-14.27 45.96,-13.87 45.79,-13.46 45.50,-13.14 45.21,-12.81 44.83,-12.59 44.45,-12.37 44.02,-12.28 43.59,-12.20 43.16,-12.25 42.72,-12.31 42.33,-12.50 41.93,-12.69 41.62,-13.00 41.31,-13.31 41.11,-13.70 40.91,-14.09 40.85,-14.52 40.79,-14.96 40.86,-15.39 40.94,-15.82 41.16,-16.20 41.37,-16.58 41.69,-16.88 42.02,-17.18 42.42,-17.35 42.82,-17.53 43.26,-17.57 43.69,-17.61 43.69,-17.61 43.69,-17.61 46.05,-17.19 48.41,-16.76 49.60,-16.35 50.79,-15.94 52.05,-15.39 53.32,-14.84 54.64,-14.16 55.96,-13.49 57.62,-12.63 59.29,-11.77 60.99,-10.71 62.69,-9.64 63.89,-8.55 65.09,-7.45 65.96,-6.37 66.84,-5.30 67.65,-3.98 68.46,-2.67 68.76,-1.42 69.06,-0.18 68.85,1.52 68.64,3.22 67.85,3.95 67.07,4.69 65.17,5.07 63.27,5.45 61.64,5.12 60.01,4.79 58.97,4.44 57.94,4.08 56.88,3.60 55.83,3.13 54.81,2.56 53.79,2.00 52.64,1.29 51.50,0.57 50.41,-0.33 49.32,-1.24 48.09,-2.90 46.86,-4.56 46.38,-5.61 45.90,-6.67 44.41,-5.68 42.92,-4.68 41.97,-3.95 41.01,-3.21 39.91,-2.27 38.81,-1.32 37.70,-0.28 36.59,0.75 34.95,2.21 33.32,3.66 33.18,2.51 33.03,1.36 32.62,0.12 32.20,-1.11 33.51,-1.07 34.82,-1.02 36.83,-0.81 38.84,-0.59 39.88,-0.29 40.93,0.01 41.93,0.53 42.92,1.05 43.83,1.86 44.73,2.67 45.44,3.80 46.14,4.93 46.48,7.07 46.83,9.22 46.78,10.94 46.74,12.67 46.34,13.91 45.94,15.15 44.91,15.83 43.89,16.52 42.28,16.58 40.68,16.64 38.99,16.24 37.30,15.85 36.23,15.53 35.16,15.22 34.04,14.86 32.91,14.50 31.65,14.08 30.39,13.66 28.99,13.13 27.58,12.61 26.28,11.82 24.98,11.02 24.13,10.00 23.27,8.97 22.82,7.11 22.36,5.26 22.48,4.00 22.61,2.74 23.32,1.83 24.03,0.92 26.20,0.46 28.37,-0.00 29.49,0.63 30.61,1.26 31.50,2.82 32.39,4.38 32.41,5.76 32.42,7.14 32.38,8.60 32.34,10.06 32.22,11.51 32.10,12.97 31.10,14.29 30.11,15.62 28.91,16.20 27.72,16.77 26.05,17.55 24.38,18.33 23.35,18.79 22.32,19.26 21.17,19.77 20.03,20.29 18.96,20.74 17.89,21.20 16.81,21.71 15.73,22.22 14.62,22.81 13.50,23.39 12.44,23.95 11.37,24.51 10.38,25.02 9.39,25.53 7.55,26.35 5.70,27.16 4.42,27.08 3.15,26.99 2.00,25.36 0.86,23.74 1.05,22.47 1.23,21.20 1.51,19.46 1.79,17.72 1.87,16.36 1.96,15.01 1.97,13.55 1.98,12.10 1.96,10.76 1.94,9.42 1.92,8.17 1.91,6.91 2.18,4.56 2.45,2.21 1.46,2.36 0.47,2.51 0.16,2.53 -0.14,2.55 -0.44,2.50 -0.75,2.45 -1.03,2.32 -1.31,2.20 -1.55,2.01 -1.80,1.82 -1.99,1.57 -2.18,1.33 -2.31,1.05 -2.44,0.77 -2.50,0.47 -2.55,0.16 -2.54,-0.14 -2.52,-0.44 -2.43,-0.74 -2.34,-1.04 -2.18,-1.30 -2.02,-1.57 -1.80,-1.79 -1.59,-2.01 -1.32,-2.17 -1.06,-2.33 -0.76,-2.42 -0.47,-2.51 -0.47,-2.51 L -0.47,-2.51 Z"></path></g><g transform="translate(221.10980017532324 278.27029911452337) rotate(0 -4.565836272475792 0.552210286641639)" stroke="none"><path fill="#1e1e1e" d="M 2.11,0.08 Q 2.11,0.08 1.91,2.46 1.71,4.84 1.59,7.42 1.48,9.99 1.40,13.01 1.33,16.03 1.28,18.34 1.23,20.65 1.27,22.38 1.32,24.12 1.41,25.42 1.50,26.72 1.50,28.51 1.51,30.29 -0.26,31.32 -2.04,32.34 -3.21,31.71 -4.38,31.09 -5.79,27.72 -7.20,24.35 -8.23,20.91 -9.26,17.47 -10.06,13.68 -10.85,9.90 -11.30,6.53 -11.74,3.16 -11.91,-1.59 -12.08,-6.34 -12.14,-9.89 -12.20,-13.44 -12.18,-15.95 -12.16,-18.47 -11.68,-20.98 -11.21,-23.49 -10.16,-25.36 -9.11,-27.22 -8.24,-28.26 -7.36,-29.29 -5.71,-30.20 -4.06,-31.11 -2.46,-31.36 -0.86,-31.61 1.04,-30.40 2.95,-29.19 3.60,-27.28 4.24,-25.37 4.34,-23.88 4.44,-22.39 3.55,-20.48 2.66,-18.57 1.76,-17.39 0.86,-16.21 0.15,-15.27 -0.56,-14.33 -0.97,-13.03 -1.38,-11.73 -1.88,-8.51 -2.39,-5.29 -2.68,-4.82 -2.97,-4.35 -3.39,-4.00 -3.82,-3.65 -4.33,-3.45 -4.85,-3.25 -5.40,-3.23 -5.95,-3.20 -6.48,-3.35 -7.01,-3.51 -7.47,-3.82 -7.92,-4.14 -8.25,-4.58 -8.58,-5.03 -8.75,-5.55 -8.92,-6.08 -8.92,-6.63 -8.91,-7.18 -8.73,-7.71 -8.55,-8.23 -8.21,-8.66 -7.87,-9.10 -7.41,-9.40 -6.95,-9.71 -6.41,-9.85 -5.88,-9.99 -5.33,-9.96 -4.77,-9.92 -4.26,-9.71 -3.75,-9.50 -3.34,-9.14 -2.92,-8.78 -2.64,-8.30 -2.36,-7.82 -2.25,-7.28 -2.13,-6.74 -2.20,-6.19 -2.26,-5.64 -2.50,-5.14 -2.74,-4.65 -3.12,-4.25 -3.51,-3.85 -4.00,-3.60 -4.49,-3.34 -5.04,-3.26 -5.58,-3.18 -6.13,-3.27 -6.67,-3.37 -7.16,-3.63 -7.64,-3.90 -8.02,-4.30 -8.39,-4.71 -8.62,-5.21 -8.85,-5.72 -8.90,-6.27 -8.96,-6.82 -8.83,-7.36 -8.71,-7.89 -8.71,-7.89 -8.71,-7.89 -8.37,-9.79 -8.03,-11.68 -7.76,-13.14 -7.48,-14.61 -6.71,-16.12 -5.94,-17.63 -4.95,-18.77 -3.97,-19.92 -2.73,-21.27 -1.49,-22.62 -1.30,-23.68 -1.12,-24.73 -1.43,-25.88 -1.75,-27.04 -2.83,-27.07 -3.91,-27.11 -5.25,-26.38 -6.59,-25.65 -7.53,-24.28 -8.47,-22.91 -8.88,-20.69 -9.28,-18.47 -9.25,-15.99 -9.22,-13.51 -9.10,-10.00 -8.98,-6.48 -8.73,-1.90 -8.49,2.68 -7.95,5.89 -7.41,9.10 -6.50,12.68 -5.60,16.25 -4.42,19.45 -3.24,22.64 -2.70,25.84 -2.15,29.04 -2.15,27.88 -2.15,26.72 -2.05,25.41 -1.96,24.11 -1.90,22.37 -1.85,20.64 -1.89,18.32 -1.92,16.01 -1.96,12.98 -2.01,9.94 -2.05,7.32 -2.08,4.70 -2.10,2.30 -2.11,-0.08 -2.07,-0.33 -2.03,-0.58 -1.93,-0.82 -1.83,-1.05 -1.68,-1.26 -1.53,-1.46 -1.33,-1.62 -1.13,-1.78 -0.90,-1.89 -0.67,-2.00 -0.42,-2.06 -0.17,-2.11 0.08,-2.10 0.33,-2.09 0.58,-2.02 0.82,-1.95 1.04,-1.82 1.27,-1.69 1.45,-1.51 1.63,-1.34 1.77,-1.12 1.91,-0.91 1.99,-0.66 2.07,-0.42 2.09,-0.17 2.11,0.08 2.11,0.08 L 2.11,0.08 Z"></path></g><g transform="translate(247.75057936988685 249.76701275107916) rotate(0 3.476808320422947 13.895688815768153)" stroke="none"><path fill="#1e1e1e" d="M 1.90,0.89 Q 1.90,0.89 0.71,3.18 -0.47,5.47 -1.32,7.31 -2.16,9.14 -2.94,11.27 -3.71,13.39 -4.47,15.44 -5.22,17.50 -5.48,18.68 -5.74,19.87 -5.79,21.06 -5.84,22.25 -5.91,22.49 -5.98,22.74 -6.11,22.96 -6.24,23.18 -6.41,23.37 -6.59,23.55 -6.80,23.69 -7.02,23.83 -7.26,23.91 -7.50,23.99 -7.75,24.01 -8.01,24.03 -8.26,23.99 -8.51,23.95 -8.75,23.85 -8.98,23.75 -9.19,23.60 -9.39,23.45 -9.55,23.25 -9.71,23.06 -9.82,22.83 -9.93,22.60 -9.99,22.35 -10.04,22.10 -10.03,21.84 -10.02,21.59 -10.28,20.52 -10.54,19.45 -10.87,18.08 -11.20,16.72 -11.45,15.29 -11.71,13.86 -11.96,12.79 -12.22,11.71 -12.70,10.40 -13.17,9.09 -12.39,7.58 -11.60,6.08 -9.60,5.74 -7.60,5.39 -6.23,5.75 -4.86,6.11 -3.19,7.05 -1.52,8.00 0.04,9.18 1.60,10.36 2.97,11.42 4.34,12.48 5.73,13.63 7.13,14.78 8.49,15.98 9.85,17.18 11.11,18.28 12.37,19.38 13.42,20.28 14.48,21.18 15.84,22.34 17.20,23.50 18.44,24.99 19.68,26.49 19.82,26.88 19.96,27.27 19.96,27.69 19.96,28.10 19.83,28.50 19.70,28.89 19.46,29.23 19.21,29.56 18.86,29.80 18.52,30.03 18.12,30.15 17.72,30.26 17.31,30.24 16.89,30.22 16.50,30.07 16.12,29.92 15.80,29.66 15.48,29.39 15.26,29.03 15.04,28.68 14.95,28.27 14.86,27.87 14.90,27.45 14.94,27.04 15.11,26.66 15.28,26.28 15.57,25.98 15.85,25.67 16.22,25.48 16.58,25.28 16.99,25.21 17.40,25.14 17.81,25.20 18.22,25.27 18.59,25.46 18.96,25.65 19.25,25.95 19.54,26.25 19.72,26.62 19.90,27.00 19.94,27.41 19.99,27.83 19.91,28.23 19.82,28.64 19.61,29.00 19.40,29.36 19.08,29.63 18.77,29.90 18.38,30.06 18.00,30.21 17.58,30.24 17.17,30.27 16.76,30.16 16.36,30.05 16.02,29.82 15.67,29.59 15.42,29.26 15.16,28.93 15.16,28.93 15.16,28.93 14.39,28.04 13.62,27.14 12.49,25.92 11.36,24.70 10.37,23.79 9.39,22.88 8.12,21.84 6.86,20.79 5.50,19.74 4.15,18.70 2.73,17.71 1.31,16.72 -0.05,15.83 -1.43,14.93 -2.90,14.10 -4.36,13.26 -5.44,12.72 -6.52,12.18 -7.88,11.50 -9.24,10.83 -8.24,9.10 -7.25,7.38 -6.87,8.87 -6.50,10.35 -6.36,11.75 -6.22,13.14 -6.12,14.67 -6.02,16.19 -5.90,17.44 -5.79,18.70 -5.82,20.48 -5.84,22.25 -5.91,22.49 -5.98,22.74 -6.11,22.96 -6.23,23.18 -6.41,23.37 -6.59,23.55 -6.80,23.69 -7.02,23.83 -7.26,23.91 -7.50,23.99 -7.75,24.01 -8.01,24.03 -8.26,23.99 -8.51,23.95 -8.75,23.85 -8.98,23.75 -9.18,23.60 -9.39,23.45 -9.55,23.25 -9.71,23.06 -9.82,22.83 -9.93,22.60 -9.99,22.35 -10.04,22.10 -10.03,21.84 -10.02,21.59 -9.97,21.46 -9.92,21.34 -9.52,20.08 -9.12,18.82 -8.64,17.65 -8.17,16.48 -7.50,14.41 -6.83,12.34 -6.13,10.05 -5.43,7.76 -4.66,5.81 -3.90,3.86 -2.90,1.48 -1.90,-0.89 -1.76,-1.10 -1.63,-1.32 -1.45,-1.49 -1.27,-1.67 -1.05,-1.80 -0.83,-1.92 -0.58,-1.99 -0.34,-2.07 -0.09,-2.08 0.15,-2.09 0.40,-2.04 0.65,-1.99 0.88,-1.88 1.11,-1.78 1.31,-1.62 1.50,-1.46 1.66,-1.26 1.81,-1.05 1.91,-0.82 2.01,-0.59 2.05,-0.34 2.09,-0.09 2.07,0.15 2.06,0.41 1.98,0.65 1.90,0.89 1.90,0.89 L 1.90,0.89 Z"></path></g><g transform="translate(138.89396202829857 281.3565196712225) rotate(0 -3.2767042444273784 6.674625381045189)" stroke="none"><path fill="#1e1e1e" d="M 1.60,1.99 Q 1.60,1.99 0.58,2.82 -0.44,3.64 -1.32,5.46 -2.21,7.28 -2.63,8.29 -3.04,9.31 -3.43,11.34 -3.83,13.36 -3.92,13.79 -4.00,14.23 -4.22,14.61 -4.44,14.99 -4.77,15.28 -5.10,15.57 -5.51,15.74 -5.92,15.91 -6.35,15.94 -6.79,15.97 -7.22,15.86 -7.65,15.75 -8.01,15.51 -8.38,15.27 -8.65,14.92 -8.93,14.58 -9.07,14.16 -9.22,13.75 -9.23,13.31 -9.24,12.87 -9.10,12.45 -8.97,12.03 -8.71,11.67 -8.45,11.32 -8.09,11.07 -7.73,10.81 -7.31,10.69 -6.88,10.56 -6.45,10.58 -6.01,10.60 -5.59,10.75 -5.18,10.91 -4.84,11.19 -4.50,11.47 -4.27,11.84 -4.04,12.21 -3.93,12.64 -3.83,13.07 -3.87,13.51 -3.91,13.95 -4.09,14.35 -4.27,14.75 -4.57,15.07 -4.86,15.40 -5.25,15.61 -5.63,15.82 -6.07,15.90 -6.50,15.98 -6.94,15.92 -7.37,15.85 -7.76,15.65 -8.15,15.45 -8.46,15.14 -8.77,14.83 -8.96,14.43 -9.15,14.03 -9.21,13.60 -9.26,13.16 -9.26,13.16 -9.26,13.16 -8.57,10.20 -7.87,7.23 -7.38,6.15 -6.88,5.06 -6.17,3.53 -5.46,2.01 -4.58,0.85 -3.71,-0.30 -2.66,-1.14 -1.60,-1.99 -1.34,-2.15 -1.08,-2.32 -0.78,-2.41 -0.49,-2.51 -0.18,-2.53 0.12,-2.55 0.42,-2.50 0.72,-2.45 1.01,-2.33 1.29,-2.20 1.54,-2.02 1.78,-1.83 1.98,-1.59 2.17,-1.35 2.30,-1.07 2.43,-0.79 2.49,-0.49 2.55,-0.18 2.54,0.11 2.52,0.42 2.43,0.72 2.34,1.02 2.19,1.28 2.03,1.55 1.82,1.77 1.60,1.99 1.60,1.99 L 1.60,1.99 Z"></path></g><g transform="translate(258.34455093172903 303.88746899726175) rotate(0 156.06001442235006 8.673742063347163)" stroke="none"><path fill="#1e1e1e" d="M -0.04,-1.56 Q -0.04,-1.56 3.02,-1.62 6.09,-1.67 10.74,-1.69 15.40,-1.70 21.52,-1.70 27.65,-1.70 33.98,-1.70 40.32,-1.69 46.87,-1.68 53.43,-1.68 60.64,-1.67 67.86,-1.67 75.58,-1.66 83.30,-1.66 90.96,-1.65 98.62,-1.65 105.92,-1.65 113.22,-1.65 120.04,-1.64 126.86,-1.64 133.36,-1.64 139.85,-1.64 146.11,-1.64 152.36,-1.64 158.50,-1.64 164.64,-1.64 170.77,-1.63 176.90,-1.63 182.93,-1.63 188.95,-1.63 194.89,-1.63 200.83,-1.63 206.71,-1.63 212.59,-1.63 218.24,-1.63 223.89,-1.63 228.40,-1.57 232.92,-1.51 236.42,-1.16 239.93,-0.81 243.21,-0.28 246.50,0.24 249.29,0.68 252.08,1.13 254.21,1.52 256.34,1.91 257.92,2.22 259.51,2.53 260.71,2.82 261.92,3.10 263.46,3.47 265.01,3.85 266.13,4.03 267.25,4.22 268.50,4.30 269.76,4.38 270.99,4.34 272.22,4.30 273.36,4.24 274.50,4.18 275.63,4.10 276.76,4.03 278.07,3.96 279.38,3.89 280.57,3.84 281.76,3.79 282.88,3.77 284.01,3.74 285.30,3.76 286.59,3.78 287.86,3.92 289.13,4.05 290.21,4.05 291.30,4.06 292.48,4.02 293.66,3.98 294.77,3.64 295.88,3.31 297.04,3.02 298.20,2.73 299.79,2.41 301.38,2.09 302.82,2.01 304.25,1.93 305.60,1.92 306.95,1.91 308.14,1.89 309.34,1.87 308.60,2.83 307.85,3.79 307.48,2.65 307.10,1.52 305.70,0.71 304.29,-0.09 302.64,-0.48 300.99,-0.87 299.72,-0.95 298.46,-1.03 297.45,-1.03 296.43,-1.02 296.01,-1.08 295.59,-1.13 295.20,-1.29 294.81,-1.44 294.46,-1.68 294.12,-1.93 293.84,-2.25 293.56,-2.57 293.37,-2.94 293.18,-3.32 293.08,-3.73 292.98,-4.14 292.99,-4.57 292.99,-4.99 293.10,-5.40 293.21,-5.81 293.41,-6.18 293.61,-6.55 293.89,-6.86 294.18,-7.18 294.53,-7.41 294.88,-7.65 295.27,-7.80 295.67,-7.94 296.09,-7.99 296.51,-8.03 298.26,-8.03 300.00,-8.03 301.97,-7.88 303.94,-7.74 305.00,-7.51 306.06,-7.28 307.86,-6.64 309.66,-6.01 310.83,-5.44 311.99,-4.87 312.91,-4.23 313.83,-3.59 314.74,-2.19 315.65,-0.80 315.81,0.51 315.97,1.82 315.85,2.89 315.73,3.95 314.90,5.23 314.08,6.51 312.86,7.46 311.64,8.42 310.16,9.34 308.68,10.26 306.81,11.27 304.93,12.27 303.07,13.32 301.20,14.36 299.52,15.36 297.83,16.36 296.20,17.34 294.56,18.31 293.14,19.24 291.73,20.16 290.63,20.93 289.54,21.70 287.16,22.84 284.78,23.97 284.42,24.02 284.07,24.06 283.71,23.99 283.36,23.91 283.05,23.73 282.74,23.55 282.51,23.27 282.27,23.00 282.13,22.67 282.00,22.34 281.97,21.98 281.95,21.62 282.04,21.27 282.14,20.92 282.34,20.62 282.53,20.32 282.82,20.10 283.10,19.88 283.44,19.76 283.78,19.65 284.14,19.64 284.50,19.64 284.85,19.75 285.19,19.86 285.48,20.08 285.77,20.29 285.97,20.59 286.18,20.88 286.27,21.23 286.37,21.57 286.36,21.93 286.34,22.29 286.21,22.63 286.08,22.97 285.85,23.24 285.62,23.52 285.32,23.71 285.01,23.90 284.66,23.98 284.31,24.06 283.95,24.02 283.59,23.99 283.26,23.84 282.93,23.69 282.67,23.45 282.41,23.20 282.24,22.88 282.06,22.57 282.00,22.21 281.94,21.86 282.00,21.50 282.05,21.15 282.22,20.83 282.38,20.51 282.64,20.26 282.90,20.01 283.22,19.85 283.55,19.70 283.55,19.70 283.55,19.70 285.35,18.86 287.15,18.01 288.28,17.33 289.42,16.65 290.85,15.70 292.28,14.74 293.82,13.69 295.36,12.63 296.92,11.49 298.47,10.34 300.14,8.98 301.82,7.62 303.38,6.32 304.95,5.02 306.11,4.06 307.27,3.10 307.64,1.93 308.01,0.75 306.98,0.27 305.95,-0.21 304.58,-0.55 303.21,-0.89 301.60,-0.96 300.00,-1.03 298.22,-1.03 296.43,-1.02 296.01,-1.08 295.59,-1.13 295.20,-1.29 294.81,-1.44 294.46,-1.68 294.12,-1.93 293.84,-2.25 293.56,-2.57 293.37,-2.94 293.18,-3.32 293.08,-3.73 292.98,-4.14 292.99,-4.57 292.99,-4.99 293.10,-5.40 293.21,-5.81 293.41,-6.18 293.61,-6.55 293.89,-6.86 294.18,-7.18 294.53,-7.41 294.88,-7.65 295.27,-7.80 295.67,-7.94 296.09,-7.99 296.51,-8.03 296.57,-8.03 296.63,-8.03 297.70,-7.98 298.76,-7.94 300.43,-7.83 302.09,-7.72 303.23,-7.56 304.38,-7.39 305.58,-7.11 306.77,-6.82 307.90,-6.41 309.03,-5.99 309.99,-5.42 310.96,-4.84 312.26,-3.44 313.56,-2.04 314.05,-1.03 314.54,-0.03 314.76,2.00 314.99,4.03 314.79,5.43 314.59,6.83 313.82,7.64 313.05,8.46 311.20,8.84 309.34,9.23 308.15,9.21 306.96,9.19 305.65,9.19 304.35,9.19 303.05,9.25 301.74,9.32 300.33,9.63 298.91,9.93 297.73,10.32 296.55,10.71 294.96,10.86 293.36,11.02 292.28,10.98 291.20,10.94 289.81,10.86 288.43,10.78 287.30,10.63 286.18,10.48 285.09,10.42 284.01,10.37 282.88,10.35 281.76,10.32 280.57,10.27 279.38,10.23 278.07,10.15 276.76,10.08 275.61,10.00 274.47,9.93 273.28,9.85 272.08,9.77 270.61,9.62 269.14,9.48 267.64,9.13 266.13,8.79 264.84,8.28 263.54,7.76 262.18,7.08 260.82,6.39 259.78,5.93 258.74,5.46 257.30,4.98 255.86,4.49 253.77,4.11 251.67,3.72 248.87,3.28 246.08,2.83 242.87,2.32 239.67,1.80 236.27,1.45 232.88,1.11 228.38,1.05 223.89,0.99 218.24,0.99 212.59,0.99 206.71,0.99 200.83,0.99 194.89,0.99 188.95,0.99 182.93,0.99 176.90,0.99 170.77,0.99 164.64,0.99 158.50,0.99 152.36,0.99 146.11,0.99 139.85,0.99 133.36,0.99 126.86,1.00 120.04,1.00 113.22,1.00 105.92,1.00 98.62,1.00 90.96,1.01 83.30,1.01 75.58,1.02 67.86,1.02 60.65,1.03 53.43,1.04 46.88,1.05 40.32,1.06 33.99,1.09 27.65,1.11 21.54,1.14 15.42,1.17 10.80,1.24 6.18,1.30 3.11,1.43 0.04,1.56 -0.14,1.54 -0.32,1.52 -0.50,1.46 -0.68,1.40 -0.84,1.30 -1.00,1.20 -1.12,1.06 -1.25,0.92 -1.35,0.76 -1.44,0.59 -1.49,0.41 -1.54,0.23 -1.55,0.04 -1.55,-0.14 -1.51,-0.32 -1.47,-0.50 -1.39,-0.67 -1.31,-0.84 -1.19,-0.99 -1.07,-1.13 -0.91,-1.24 -0.76,-1.36 -0.59,-1.43 -0.41,-1.50 -0.23,-1.53 -0.04,-1.56 -0.04,-1.56 L -0.04,-1.56 Z"></path></g><g transform="translate(283.4114346054813 291.71575375930115) rotate(0 -3.093916867316011 19.68139032075669)" stroke="none"><path fill="#1e1e1e" d="M 1.23,2.28 Q 1.23,2.28 0.21,2.85 -0.80,3.43 -1.73,4.02 -2.67,4.61 -3.61,5.19 -4.54,5.77 -5.48,6.33 -6.41,6.89 -7.53,7.54 -8.65,8.18 -9.84,8.78 -11.03,9.37 -12.10,9.80 -13.16,10.22 -14.26,10.68 -15.35,11.14 -14.85,9.64 -14.35,8.13 -13.01,8.79 -11.66,9.45 -10.69,10.21 -9.72,10.98 -8.73,11.62 -7.75,12.27 -6.64,12.98 -5.53,13.69 -4.37,14.45 -3.21,15.20 -2.19,15.82 -1.17,16.44 -0.21,17.07 0.74,17.71 1.75,18.55 2.76,19.40 3.66,20.18 4.56,20.96 5.36,21.71 6.15,22.46 6.91,23.45 7.68,24.45 8.29,25.43 8.91,26.41 9.42,27.41 9.94,28.41 10.74,30.11 11.55,31.81 12.15,33.29 12.75,34.77 13.40,36.31 14.04,37.85 14.17,38.33 14.31,38.82 14.28,39.32 14.25,39.82 14.06,40.28 13.87,40.75 13.55,41.13 13.22,41.51 12.79,41.77 12.36,42.03 11.86,42.13 11.37,42.24 10.88,42.18 10.38,42.13 9.92,41.91 9.47,41.70 9.10,41.35 8.74,41.01 8.51,40.56 8.28,40.12 8.20,39.62 8.12,39.12 8.20,38.63 8.28,38.13 8.52,37.69 8.76,37.25 9.12,36.91 9.49,36.56 9.95,36.35 10.40,36.15 10.90,36.09 11.40,36.04 11.89,36.15 12.38,36.26 12.81,36.52 13.24,36.78 13.56,37.17 13.89,37.55 14.07,38.02 14.25,38.49 14.28,38.99 14.30,39.49 14.17,39.97 14.03,40.45 13.75,40.87 13.46,41.28 13.06,41.59 12.66,41.89 12.18,42.05 11.71,42.20 11.21,42.20 10.70,42.20 10.23,42.04 9.75,41.87 9.36,41.57 8.96,41.26 8.68,40.85 8.40,40.43 8.40,40.43 8.40,40.43 7.69,38.67 6.98,36.91 6.52,35.59 6.07,34.27 5.37,32.65 4.67,31.04 3.83,29.46 3.00,27.88 1.91,26.57 0.83,25.26 -0.03,24.51 -0.91,23.75 -2.50,22.51 -4.09,21.27 -5.14,20.63 -6.20,19.99 -7.37,19.30 -8.54,18.60 -9.71,17.91 -10.88,17.23 -12.09,16.49 -13.30,15.75 -14.43,14.93 -15.56,14.12 -17.06,12.88 -18.56,11.63 -19.36,10.39 -20.17,9.15 -18.31,7.27 -16.46,5.39 -14.97,4.92 -13.47,4.45 -12.44,3.95 -11.40,3.44 -10.29,2.78 -9.17,2.12 -7.31,1.09 -5.46,0.06 -4.38,-0.57 -3.30,-1.20 -2.27,-1.74 -1.23,-2.28 -0.94,-2.39 -0.65,-2.51 -0.34,-2.55 -0.03,-2.59 0.27,-2.56 0.59,-2.52 0.88,-2.42 1.17,-2.31 1.43,-2.13 1.69,-1.96 1.90,-1.73 2.11,-1.50 2.26,-1.22 2.41,-0.95 2.49,-0.64 2.57,-0.34 2.57,-0.03 2.58,0.28 2.51,0.58 2.43,0.89 2.29,1.17 2.15,1.44 1.95,1.68 1.74,1.92 1.48,2.10 1.23,2.28 1.23,2.28 L 1.23,2.28 Z"></path></g><g transform="translate(353.0284122754005 276.1345729187997) rotate(0 0 9.518412153367535)" stroke="none"><path fill="#1e1e1e" d="M 2.62,0 Q 2.62,0 2.62,1.36 2.61,2.73 2.63,3.90 2.65,5.08 2.67,6.25 2.68,7.41 2.74,9.32 2.79,11.23 2.85,12.80 2.91,14.37 2.94,16.68 2.97,18.99 2.89,19.46 2.81,19.94 2.59,20.36 2.36,20.79 2.01,21.12 1.66,21.45 1.23,21.65 0.79,21.85 0.31,21.91 -0.16,21.96 -0.63,21.86 -1.10,21.75 -1.51,21.50 -1.92,21.26 -2.23,20.89 -2.54,20.52 -2.72,20.08 -2.90,19.63 -2.93,19.15 -2.95,18.67 -2.82,18.20 -2.69,17.74 -2.42,17.34 -2.15,16.94 -1.77,16.65 -1.39,16.36 -0.93,16.21 -0.48,16.05 0.00,16.05 0.48,16.05 0.93,16.21 1.39,16.36 1.77,16.65 2.15,16.94 2.42,17.34 2.69,17.74 2.82,18.20 2.95,18.67 2.93,19.15 2.90,19.63 2.72,20.08 2.54,20.52 2.23,20.89 1.92,21.26 1.51,21.50 1.10,21.75 0.63,21.86 0.16,21.96 -0.31,21.91 -0.79,21.85 -1.23,21.65 -1.66,21.45 -2.01,21.12 -2.36,20.79 -2.59,20.36 -2.81,19.94 -2.89,19.46 -2.97,18.99 -2.97,18.99 -2.97,18.99 -2.94,16.68 -2.91,14.37 -2.85,12.80 -2.79,11.23 -2.74,9.32 -2.68,7.41 -2.67,6.25 -2.65,5.08 -2.63,3.90 -2.61,2.73 -2.62,1.36 -2.62,0 -2.58,-0.31 -2.55,-0.62 -2.43,-0.92 -2.32,-1.22 -2.14,-1.48 -1.96,-1.74 -1.72,-1.95 -1.49,-2.16 -1.21,-2.30 -0.93,-2.45 -0.62,-2.53 -0.31,-2.60 0.00,-2.60 0.31,-2.60 0.62,-2.53 0.93,-2.45 1.21,-2.30 1.49,-2.16 1.72,-1.95 1.96,-1.74 2.14,-1.48 2.32,-1.22 2.43,-0.92 2.55,-0.62 2.58,-0.31 2.62,0.00 2.62,0.00 L 2.62,0 Z"></path></g><g transform="translate(368.8789639874339 272.11709877766043) rotate(0 15.95830006064648 5.017994521118453)" stroke="none"><path fill="#1e1e1e" d="M 2.54,0.21 Q 2.54,0.21 2.50,1.11 2.47,2.01 2.53,3.34 2.58,4.68 2.75,5.90 2.92,7.12 3.74,8.17 4.56,9.22 5.39,10.12 6.22,11.03 4.86,11.08 3.49,11.13 4.08,9.63 4.67,8.13 4.83,6.86 4.98,5.59 4.21,4.78 3.44,3.97 1.97,3.79 0.51,3.61 -1.24,3.39 -2.99,3.17 -3.63,0.53 -4.26,-2.10 -3.32,-2.88 -2.39,-3.66 -0.55,-4.05 1.27,-4.45 2.78,-4.56 4.29,-4.68 5.55,-4.79 6.80,-4.90 7.85,-5.06 8.91,-5.22 10.85,-5.56 12.79,-5.89 13.80,-6.20 14.82,-6.51 16.03,-6.85 17.23,-7.19 18.84,-6.80 20.45,-6.40 21.19,-5.49 21.93,-4.58 22.54,-3.10 23.15,-1.62 23.84,0.03 24.52,1.69 25.44,3.19 26.37,4.70 27.35,5.64 28.32,6.58 29.57,7.05 30.82,7.52 30.58,5.95 30.35,4.38 30.32,3.13 30.30,1.87 28.79,1.36 27.28,0.85 25.64,0.52 23.99,0.19 21.55,0.06 19.11,-0.06 18.59,-0.16 18.07,-0.25 17.60,-0.50 17.14,-0.76 16.78,-1.15 16.42,-1.53 16.21,-2.02 15.99,-2.50 15.94,-3.03 15.89,-3.55 16.01,-4.07 16.13,-4.58 16.41,-5.03 16.69,-5.48 17.10,-5.82 17.50,-6.16 18.00,-6.35 18.49,-6.53 19.02,-6.56 19.55,-6.58 20.06,-6.43 20.56,-6.28 21.00,-5.98 21.43,-5.68 21.75,-5.25 22.06,-4.83 22.22,-4.32 22.39,-3.82 22.38,-3.29 22.37,-2.76 22.20,-2.26 22.02,-1.76 21.70,-1.35 21.37,-0.93 20.93,-0.64 20.49,-0.35 19.97,-0.21 19.46,-0.08 18.94,-0.11 18.41,-0.15 17.92,-0.35 17.43,-0.55 17.03,-0.90 16.63,-1.25 16.37,-1.71 16.10,-2.16 15.99,-2.68 15.89,-3.20 15.95,-3.72 16.01,-4.25 16.24,-4.73 16.47,-5.20 16.84,-5.58 17.21,-5.96 17.68,-6.20 18.15,-6.44 18.67,-6.52 19.20,-6.60 19.19,-6.60 19.19,-6.60 22.12,-6.43 25.04,-6.26 26.18,-6.08 27.32,-5.91 28.38,-5.66 29.43,-5.41 30.60,-5.00 31.77,-4.58 32.93,-3.91 34.09,-3.24 35.07,-2.21 36.05,-1.19 36.58,0.90 37.11,3.01 37.01,4.97 36.92,6.93 36.74,8.00 36.56,9.07 36.22,10.08 35.89,11.09 35.15,12.11 34.41,13.13 32.53,13.65 30.66,14.17 28.99,13.77 27.33,13.38 25.79,12.52 24.25,11.67 23.34,10.90 22.43,10.13 21.71,9.29 20.99,8.44 20.30,7.48 19.62,6.51 18.60,4.56 17.58,2.62 17.10,1.15 16.63,-0.31 15.27,0.02 13.92,0.35 11.97,0.71 10.02,1.07 8.81,1.31 7.60,1.55 6.36,1.75 5.11,1.95 2.92,1.94 0.73,1.93 -0.31,-0.75 -1.37,-3.44 -0.25,-3.40 0.85,-3.36 2.42,-3.20 3.98,-3.03 5.03,-2.77 6.08,-2.51 7.42,-1.79 8.76,-1.08 9.75,-0.19 10.74,0.69 11.33,2.05 11.91,3.40 11.92,4.74 11.93,6.07 11.75,7.57 11.57,9.08 11.11,10.49 10.66,11.89 10.08,13.17 9.51,14.45 8.62,15.51 7.72,16.57 6.68,16.93 5.63,17.30 4.41,17.08 3.19,16.86 1.95,15.79 0.71,14.73 -0.05,13.71 -0.83,12.69 -1.55,11.48 -2.27,10.27 -2.75,8.53 -3.24,6.79 -3.13,5.37 -3.03,3.95 -2.90,2.76 -2.77,1.57 -2.65,0.67 -2.54,-0.21 -2.48,-0.51 -2.41,-0.81 -2.28,-1.09 -2.15,-1.37 -1.95,-1.60 -1.76,-1.84 -1.51,-2.02 -1.26,-2.21 -0.98,-2.33 -0.70,-2.45 -0.39,-2.50 -0.09,-2.54 0.21,-2.52 0.51,-2.49 0.80,-2.40 1.10,-2.30 1.36,-2.13 1.62,-1.97 1.83,-1.74 2.04,-1.52 2.19,-1.25 2.35,-0.99 2.43,-0.69 2.51,-0.40 2.53,-0.09 2.54,0.21 2.54,0.21 L 2.54,0.21 Z"></path></g><g transform="translate(420.7905790870531 267.98417997728757) rotate(0 15.860172100302407 14.740358905790345)" stroke="none"><path fill="#1e1e1e" d="M 2.38,1.15 Q 2.38,1.15 2.08,1.84 1.79,2.53 3.06,1.83 4.33,1.13 4.07,-0.26 3.81,-1.66 2.69,-1.70 1.58,-1.75 0.88,-1.67 0.18,-1.60 -0.22,-1.53 -0.64,-1.45 -1.06,-1.48 -1.48,-1.51 -1.89,-1.64 -2.29,-1.76 -2.65,-1.99 -3.01,-2.21 -3.31,-2.51 -3.61,-2.81 -3.82,-3.17 -4.04,-3.53 -4.16,-3.94 -4.29,-4.34 -4.31,-4.77 -4.33,-5.19 -4.25,-5.60 -4.17,-6.02 -4.00,-6.40 -3.82,-6.79 -3.56,-7.12 -3.30,-7.45 -2.96,-7.71 -2.63,-7.97 -2.24,-8.14 -1.86,-8.31 -0.53,-8.19 0.79,-8.06 2.32,-8.07 3.85,-8.08 5.23,-8.08 6.61,-8.08 7.89,-8.28 9.16,-8.49 10.47,-8.84 11.77,-9.18 12.92,-9.52 14.08,-9.85 15.52,-10.19 16.96,-10.52 18.01,-10.24 19.05,-9.96 20.20,-8.22 21.35,-6.48 21.17,-5.08 20.98,-3.69 20.43,-2.08 19.87,-0.47 19.11,1.38 18.35,3.23 17.62,5.38 16.89,7.53 16.29,9.69 15.69,11.85 15.07,14.00 14.46,16.14 13.89,18.08 13.32,20.01 12.79,21.83 12.27,23.66 11.78,25.46 11.30,27.26 10.93,28.86 10.55,30.46 10.26,31.73 9.97,33.00 9.67,34.53 9.37,36.06 8.44,35.30 7.52,34.55 8.87,33.84 10.23,33.13 11.20,32.69 12.17,32.24 13.80,31.37 15.44,30.50 17.15,29.52 18.85,28.54 19.93,27.87 21.01,27.20 22.05,26.55 23.09,25.91 24.10,25.43 25.12,24.96 26.65,24.72 28.18,24.47 29.30,25.09 30.43,25.70 31.20,26.48 31.97,27.25 33.07,28.24 34.18,29.24 32.99,29.38 31.80,29.53 30.57,30.37 29.34,31.22 29.52,31.77 29.69,32.33 29.24,32.68 28.79,33.04 28.25,33.24 27.71,33.43 27.14,33.45 26.56,33.46 26.02,33.29 25.47,33.12 25.00,32.78 24.54,32.44 24.20,31.97 23.87,31.51 23.70,30.96 23.54,30.40 23.56,29.83 23.57,29.26 23.78,28.72 23.98,28.18 24.34,27.73 24.70,27.29 25.19,26.98 25.67,26.67 26.23,26.54 26.79,26.40 27.36,26.45 27.93,26.50 28.46,26.73 28.99,26.96 29.41,27.34 29.84,27.73 30.12,28.23 30.40,28.73 30.51,29.30 30.61,29.86 30.53,30.43 30.45,31.00 30.19,31.51 29.94,32.03 29.53,32.43 29.12,32.84 28.60,33.09 28.09,33.34 27.52,33.42 26.95,33.49 26.38,33.38 25.82,33.27 25.32,32.98 24.82,32.70 24.44,32.27 24.06,31.84 23.83,31.31 23.61,30.78 23.57,30.21 23.52,29.64 23.66,29.08 23.80,28.52 24.12,28.04 24.43,27.56 24.43,27.56 24.43,27.56 27.81,25.99 31.19,24.43 32.64,24.97 34.09,25.51 34.87,26.43 35.66,27.35 35.96,28.38 36.27,29.40 36.27,30.84 36.27,32.29 34.80,33.73 33.33,35.17 31.02,34.35 28.71,33.53 28.29,32.23 27.88,30.93 26.59,31.32 25.29,31.71 24.18,32.33 23.06,32.94 21.53,33.76 20.00,34.59 18.12,35.57 16.25,36.55 14.37,37.37 12.49,38.19 10.52,38.89 8.55,39.58 7.10,39.20 5.65,38.82 5.33,36.75 5.01,34.68 5.58,33.29 6.14,31.89 6.56,30.71 6.99,29.53 7.44,27.95 7.90,26.36 8.39,24.52 8.87,22.69 9.38,20.88 9.89,19.07 10.37,17.17 10.86,15.28 11.27,13.13 11.69,10.98 12.05,8.68 12.42,6.37 12.86,4.00 13.30,1.63 13.74,-0.31 14.18,-2.26 14.88,-3.98 15.57,-5.70 16.72,-5.14 17.86,-4.57 16.79,-4.43 15.72,-4.28 14.61,-3.94 13.50,-3.61 11.95,-3.08 10.40,-2.54 8.69,-2.12 6.98,-1.71 5.38,-1.54 3.79,-1.37 1.99,-1.49 0.18,-1.60 -0.22,-1.53 -0.64,-1.45 -1.06,-1.48 -1.48,-1.51 -1.89,-1.64 -2.29,-1.76 -2.65,-1.99 -3.01,-2.21 -3.31,-2.51 -3.61,-2.81 -3.82,-3.17 -4.04,-3.53 -4.16,-3.94 -4.29,-4.34 -4.31,-4.77 -4.33,-5.19 -4.25,-5.60 -4.17,-6.02 -4.00,-6.40 -3.82,-6.79 -3.56,-7.12 -3.30,-7.45 -2.96,-7.71 -2.63,-7.97 -2.24,-8.14 -1.86,-8.31 -1.16,-8.51 -0.46,-8.72 0.73,-8.67 1.93,-8.63 3.40,-8.47 4.87,-8.32 6.40,-7.83 7.94,-7.34 9.18,-5.51 10.42,-3.67 10.41,-2.51 10.41,-1.36 10.23,0.31 10.06,1.99 9.12,3.84 8.18,5.69 7.31,6.30 6.44,6.91 4.88,7.15 3.31,7.39 1.92,7.31 0.53,7.22 -1.06,6.55 -2.67,5.88 -3.17,4.82 -3.68,3.76 -3.40,1.97 -3.11,0.18 -2.74,-0.48 -2.38,-1.15 -2.20,-1.42 -2.03,-1.69 -1.80,-1.91 -1.57,-2.12 -1.29,-2.28 -1.01,-2.44 -0.70,-2.52 -0.40,-2.61 -0.08,-2.62 0.23,-2.63 0.54,-2.56 0.86,-2.50 1.14,-2.36 1.43,-2.22 1.67,-2.01 1.92,-1.81 2.11,-1.55 2.30,-1.30 2.42,-1.00 2.54,-0.71 2.59,-0.39 2.64,-0.08 2.61,0.23 2.58,0.55 2.48,0.85 2.38,1.15 2.38,1.15 L 2.38,1.15 Z"></path></g><g transform="translate(473.85664077895416 278.3318695994458) rotate(0 13.907233281691902 -0.5406658207193686)" stroke="none"><path fill="#1e1e1e" d="M 0,-2.19 Q 0,-2.19 2.59,-2.07 5.18,-1.96 7.71,-1.87 10.23,-1.78 12.29,-1.74 14.35,-1.69 16.16,-1.75 17.97,-1.82 19.56,-2.00 21.16,-2.19 22.34,-2.44 23.52,-2.68 25.51,-2.88 27.49,-3.08 27.82,-3.05 28.14,-3.01 28.44,-2.88 28.74,-2.74 28.98,-2.52 29.21,-2.29 29.37,-2.00 29.52,-1.71 29.58,-1.39 29.63,-1.07 29.58,-0.75 29.53,-0.42 29.37,-0.14 29.22,0.14 28.98,0.37 28.75,0.59 28.45,0.73 28.15,0.87 27.83,0.91 27.50,0.94 27.19,0.87 26.87,0.80 26.59,0.64 26.31,0.47 26.09,0.22 25.88,-0.02 25.76,-0.32 25.64,-0.63 25.62,-0.95 25.60,-1.28 25.69,-1.59 25.77,-1.91 25.96,-2.18 26.14,-2.45 26.40,-2.65 26.66,-2.85 26.97,-2.95 27.28,-3.06 27.60,-3.06 27.93,-3.06 28.24,-2.96 28.55,-2.85 28.81,-2.65 29.07,-2.46 29.26,-2.19 29.44,-1.92 29.53,-1.60 29.62,-1.29 29.60,-0.96 29.58,-0.64 29.46,-0.33 29.34,-0.03 29.13,0.21 28.92,0.46 28.64,0.63 28.36,0.80 28.04,0.87 27.72,0.94 27.72,0.94 27.72,0.94 25.89,1.08 24.06,1.22 22.77,1.31 21.48,1.41 19.77,1.52 18.06,1.63 16.20,1.66 14.35,1.69 12.29,1.74 10.23,1.78 7.71,1.87 5.18,1.96 2.59,2.07 0,2.19 -0.26,2.16 -0.52,2.13 -0.77,2.03 -1.02,1.94 -1.23,1.79 -1.45,1.64 -1.63,1.44 -1.80,1.24 -1.93,1.01 -2.05,0.77 -2.11,0.52 -2.18,0.26 -2.18,-0.00 -2.18,-0.26 -2.11,-0.52 -2.05,-0.77 -1.93,-1.01 -1.80,-1.24 -1.63,-1.44 -1.45,-1.64 -1.23,-1.79 -1.02,-1.94 -0.77,-2.03 -0.52,-2.13 -0.26,-2.16 0.00,-2.19 0.00,-2.19 L 0,-2.19 Z"></path></g><g transform="translate(524.9178135555921 270.477784616618) rotate(0 13.135678142516781 11.58679563120495)" stroke="none"><path fill="#1e1e1e" d="M -0.43,-2.54 Q -0.43,-2.54 0.75,-2.76 1.93,-2.98 3.16,-3.11 4.38,-3.23 5.45,-3.36 6.52,-3.48 8.00,-2.80 9.48,-2.11 9.94,-0.80 10.40,0.51 10.44,1.57 10.48,2.64 10.48,3.83 10.48,5.02 10.32,6.37 10.16,7.71 9.14,9.84 8.11,11.97 6.85,14.06 5.60,16.16 4.76,17.64 3.92,19.12 3.15,20.29 2.38,21.47 1.45,22.81 0.53,24.15 -0.03,23.00 -0.59,21.84 0.73,21.41 2.06,20.98 3.27,20.99 4.48,21.00 6.57,21.18 8.65,21.36 10.86,21.27 13.07,21.18 14.63,20.93 16.19,20.67 17.30,20.36 18.42,20.04 19.90,19.33 21.39,18.63 22.74,17.84 24.08,17.05 25.15,16.52 26.22,15.98 26.51,15.66 26.80,15.33 27.17,15.11 27.55,14.89 27.98,14.80 28.41,14.72 28.84,14.77 29.27,14.83 29.66,15.02 30.06,15.21 30.37,15.51 30.68,15.82 30.88,16.21 31.07,16.60 31.14,17.03 31.20,17.46 31.12,17.89 31.05,18.32 30.83,18.70 30.62,19.08 30.30,19.37 29.98,19.67 29.58,19.84 29.18,20.02 28.75,20.06 28.31,20.10 27.89,20.00 27.47,19.90 27.10,19.67 26.73,19.44 26.45,19.10 26.17,18.76 26.02,18.35 25.86,17.95 25.85,17.51 25.83,17.07 25.96,16.66 26.08,16.24 26.33,15.88 26.58,15.52 26.93,15.27 27.29,15.01 27.70,14.88 28.12,14.74 28.55,14.75 28.99,14.76 29.40,14.91 29.81,15.05 30.15,15.32 30.50,15.59 30.73,15.96 30.97,16.32 31.08,16.75 31.19,17.17 31.16,17.60 31.13,18.04 30.96,18.44 30.79,18.84 30.79,18.84 30.79,18.84 27.86,20.71 24.93,22.57 23.25,23.22 21.57,23.87 20.52,24.17 19.46,24.48 18.18,24.72 16.90,24.97 15.22,25.25 13.53,25.54 11.10,25.94 8.66,26.35 6.56,26.54 4.46,26.73 2.26,26.70 0.05,26.67 -1.69,26.12 -3.45,25.58 -3.95,24.37 -4.46,23.17 -3.89,21.99 -3.33,20.81 -2.38,19.80 -1.43,18.78 -0.72,17.86 -0.02,16.94 0.74,15.50 1.51,14.07 2.39,11.97 3.28,9.87 3.93,7.47 4.59,5.06 5.29,3.58 5.99,2.09 4.40,2.13 2.81,2.18 1.62,2.36 0.43,2.54 0.12,2.56 -0.19,2.57 -0.49,2.51 -0.80,2.45 -1.08,2.32 -1.36,2.19 -1.61,1.99 -1.85,1.80 -2.04,1.55 -2.23,1.30 -2.35,1.02 -2.47,0.73 -2.53,0.42 -2.58,0.12 -2.56,-0.18 -2.53,-0.50 -2.44,-0.79 -2.34,-1.09 -2.17,-1.35 -2.01,-1.62 -1.79,-1.83 -1.56,-2.05 -1.29,-2.21 -1.02,-2.37 -0.73,-2.46 -0.43,-2.54 -0.43,-2.54 L -0.43,-2.54 Z"></path></g><g transform="translate(549.8423154829632 271.5398754815178) rotate(0 21.201411667260913 4.66973646578117)" stroke="none"><path fill="#1e1e1e" d="M 2.33,-0.82 Q 2.33,-0.82 2.86,0.84 3.38,2.52 4.15,3.46 4.91,4.40 5.91,5.34 6.91,6.28 7.96,7.12 9.01,7.97 10.84,8.90 12.67,9.83 13.67,10.24 14.68,10.64 15.85,10.94 17.03,11.24 17.04,9.91 17.05,8.58 17.06,6.87 17.07,5.15 17.00,3.82 16.94,2.49 15.08,2.17 13.23,1.84 12.11,1.74 10.99,1.63 9.86,1.57 8.72,1.51 7.60,1.49 6.47,1.46 5.36,1.44 4.26,1.43 2.64,1.46 1.01,1.48 -0.21,1.54 -1.44,1.61 -0.18,0.73 1.06,-0.14 0.06,-2.09 -0.92,-4.03 0.53,-4.17 2.00,-4.31 3.24,-4.28 4.49,-4.24 6.03,-4.26 7.57,-4.28 9.28,-4.40 11.00,-4.52 12.61,-4.76 14.22,-4.99 15.59,-5.31 16.95,-5.64 18.03,-5.95 19.11,-6.26 20.49,-6.72 21.87,-7.18 22.90,-7.47 23.93,-7.77 25.20,-7.17 26.48,-6.58 27.16,-5.63 27.83,-4.68 28.26,-3.16 28.69,-1.63 29.20,-0.23 29.70,1.16 31.06,1.96 32.42,2.76 34.30,2.99 36.19,3.21 37.26,3.23 38.32,3.24 39.65,2.96 40.98,2.69 38.90,2.08 36.83,1.47 36.34,1.25 35.85,1.02 35.45,0.65 35.06,0.28 34.80,-0.19 34.55,-0.67 34.46,-1.20 34.37,-1.74 34.46,-2.27 34.55,-2.81 34.80,-3.29 35.05,-3.76 35.45,-4.14 35.84,-4.51 36.33,-4.74 36.82,-4.97 37.36,-5.03 37.90,-5.09 38.43,-4.97 38.95,-4.85 39.42,-4.58 39.88,-4.30 40.23,-3.88 40.59,-3.47 40.79,-2.97 40.99,-2.47 41.02,-1.93 41.05,-1.39 40.90,-0.86 40.76,-0.34 40.46,0.10 40.15,0.55 39.72,0.87 39.29,1.20 38.78,1.38 38.27,1.55 37.72,1.55 37.18,1.55 36.67,1.38 36.16,1.21 35.72,0.88 35.29,0.55 34.99,0.10 34.68,-0.33 34.54,-0.86 34.39,-1.38 34.42,-1.92 34.45,-2.46 34.65,-2.96 34.85,-3.47 35.20,-3.88 35.55,-4.29 36.01,-4.57 36.48,-4.85 37.01,-4.97 37.54,-5.08 38.07,-5.03 38.61,-4.97 38.61,-4.97 38.61,-4.97 40.72,-4.03 42.83,-3.10 44.44,-1.89 46.05,-0.68 46.79,1.31 47.53,3.32 47.11,4.55 46.70,5.78 45.46,6.90 44.23,8.02 42.42,8.59 40.61,9.17 39.48,9.28 38.34,9.39 37.06,9.41 35.78,9.43 34.45,9.35 33.12,9.28 31.83,9.07 30.55,8.85 29.32,8.44 28.09,8.03 27.10,7.35 26.11,6.68 25.05,5.13 23.99,3.58 23.38,1.73 22.77,-0.10 22.39,-1.86 22.00,-3.63 22.74,-2.76 23.48,-1.89 21.96,-1.56 20.44,-1.22 19.32,-0.95 18.19,-0.68 16.68,-0.29 15.18,0.09 13.47,0.48 11.75,0.87 9.88,1.25 8.00,1.63 6.26,1.85 4.52,2.07 3.23,2.12 1.95,2.16 0.83,2.17 -0.28,2.19 -1.63,1.89 -2.98,1.59 -3.27,-1.19 -3.57,-3.98 -2.50,-4.38 -1.43,-4.78 -0.20,-4.71 1.02,-4.65 2.66,-4.61 4.30,-4.58 5.43,-4.58 6.56,-4.58 7.74,-4.57 8.93,-4.57 10.18,-4.54 11.44,-4.52 12.90,-4.44 14.37,-4.37 15.80,-4.12 17.24,-3.87 18.33,-3.47 19.42,-3.08 20.50,-2.38 21.57,-1.67 22.38,0.21 23.20,2.10 23.20,3.66 23.21,5.22 23.15,7.09 23.09,8.95 23.01,10.07 22.92,11.20 22.66,12.42 22.39,13.64 21.66,14.71 20.92,15.78 19.82,16.31 18.72,16.83 17.07,16.65 15.43,16.47 14.02,15.90 12.61,15.34 11.54,14.83 10.47,14.33 9.30,13.71 8.13,13.09 7.07,12.35 6.01,11.61 4.85,10.63 3.70,9.65 2.44,8.44 1.18,7.23 0.07,5.69 -1.03,4.15 -1.68,2.48 -2.33,0.82 -2.40,0.53 -2.46,0.24 -2.46,-0.05 -2.45,-0.35 -2.37,-0.64 -2.29,-0.93 -2.15,-1.19 -2.00,-1.45 -1.80,-1.67 -1.60,-1.89 -1.35,-2.05 -1.10,-2.22 -0.81,-2.32 -0.53,-2.42 -0.23,-2.45 0.05,-2.47 0.35,-2.43 0.64,-2.39 0.92,-2.28 1.20,-2.16 1.44,-1.99 1.68,-1.81 1.88,-1.58 2.07,-1.36 2.20,-1.09 2.33,-0.82 2.33,-0.82 L 2.33,-0.82 Z"></path></g><g transform="translate(575.0862143008653 264.5554735982114) rotate(0 6.953616640846008 0)" stroke="none"><path fill="#1e1e1e" d="M 0,-2.41 Q 0,-2.41 1.95,-2.31 3.91,-2.21 5.61,-2.19 7.31,-2.17 10.35,-2.28 13.39,-2.38 13.77,-2.32 14.15,-2.26 14.49,-2.08 14.83,-1.90 15.10,-1.62 15.37,-1.33 15.53,-0.98 15.69,-0.63 15.73,-0.25 15.77,0.12 15.69,0.50 15.61,0.88 15.41,1.21 15.21,1.54 14.92,1.79 14.62,2.04 14.26,2.18 13.90,2.33 13.52,2.35 13.13,2.37 12.76,2.26 12.39,2.16 12.07,1.94 11.75,1.73 11.51,1.42 11.28,1.11 11.16,0.75 11.03,0.38 11.03,-0.00 11.03,-0.38 11.16,-0.75 11.28,-1.11 11.51,-1.42 11.75,-1.73 12.07,-1.95 12.39,-2.16 12.76,-2.27 13.13,-2.37 13.52,-2.35 13.90,-2.33 14.26,-2.18 14.62,-2.04 14.92,-1.79 15.21,-1.54 15.41,-1.21 15.61,-0.88 15.69,-0.50 15.77,-0.12 15.73,0.25 15.69,0.63 15.53,0.98 15.37,1.34 15.10,1.62 14.83,1.90 14.49,2.08 14.15,2.26 13.77,2.32 13.39,2.38 13.39,2.38 13.39,2.38 10.35,2.28 7.31,2.17 5.61,2.19 3.91,2.21 1.95,2.31 0,2.41 -0.28,2.37 -0.57,2.34 -0.84,2.23 -1.12,2.13 -1.35,1.96 -1.59,1.80 -1.79,1.58 -1.98,1.36 -2.11,1.11 -2.25,0.85 -2.32,0.57 -2.39,0.29 -2.39,-0.00 -2.39,-0.29 -2.32,-0.57 -2.25,-0.85 -2.11,-1.11 -1.98,-1.36 -1.79,-1.58 -1.59,-1.80 -1.35,-1.96 -1.11,-2.13 -0.84,-2.23 -0.57,-2.34 -0.28,-2.37 0.00,-2.41 0.00,-2.41 L 0,-2.41 Z"></path></g><g transform="translate(619.990338585332 265.9369613536437) rotate(0 0 22.42320097742595)" stroke="none"><path fill="#1e1e1e" d="M 1.88,0 Q 1.88,0 1.92,1.56 1.96,3.13 2.02,4.45 2.08,5.76 2.13,7.13 2.17,8.49 2.06,12.20 1.94,15.91 1.86,18.92 1.77,21.93 1.71,24.39 1.65,26.85 1.63,28.87 1.61,30.90 1.61,32.84 1.61,34.78 1.66,36.46 1.71,38.15 1.80,39.41 1.89,40.68 1.91,42.68 1.93,44.69 1.88,44.99 1.83,45.30 1.68,45.58 1.53,45.86 1.31,46.07 1.08,46.29 0.80,46.42 0.51,46.55 0.20,46.58 -0.10,46.62 -0.41,46.55 -0.71,46.48 -0.98,46.32 -1.25,46.16 -1.45,45.92 -1.65,45.68 -1.77,45.39 -1.88,45.10 -1.90,44.79 -1.92,44.48 -1.83,44.18 -1.75,43.87 -1.57,43.61 -1.40,43.36 -1.15,43.17 -0.90,42.98 -0.60,42.88 -0.31,42.78 0.00,42.78 0.31,42.78 0.60,42.88 0.90,42.98 1.15,43.17 1.40,43.36 1.57,43.62 1.75,43.87 1.83,44.18 1.92,44.48 1.90,44.79 1.88,45.10 1.77,45.39 1.65,45.68 1.45,45.92 1.25,46.16 0.98,46.32 0.71,46.48 0.40,46.55 0.10,46.62 -0.20,46.58 -0.51,46.55 -0.80,46.42 -1.08,46.29 -1.31,46.07 -1.53,45.86 -1.68,45.58 -1.83,45.30 -1.88,44.99 -1.93,44.69 -1.93,44.69 -1.93,44.69 -1.91,42.68 -1.89,40.68 -1.80,39.41 -1.71,38.15 -1.66,36.46 -1.61,34.78 -1.61,32.84 -1.61,30.90 -1.63,28.87 -1.65,26.85 -1.71,24.39 -1.77,21.93 -1.86,18.92 -1.94,15.91 -2.06,12.20 -2.17,8.49 -2.13,7.13 -2.08,5.76 -2.02,4.45 -1.96,3.13 -1.92,1.56 -1.88,0 -1.85,-0.22 -1.83,-0.45 -1.75,-0.66 -1.67,-0.87 -1.54,-1.06 -1.41,-1.25 -1.24,-1.40 -1.07,-1.55 -0.87,-1.65 -0.66,-1.76 -0.44,-1.81 -0.22,-1.87 0.00,-1.87 0.22,-1.87 0.44,-1.81 0.66,-1.76 0.87,-1.65 1.07,-1.55 1.24,-1.40 1.41,-1.25 1.54,-1.06 1.67,-0.87 1.75,-0.66 1.83,-0.45 1.85,-0.22 1.88,0.00 1.88,0.00 L 1.88,0 Z"></path></g><g transform="translate(611.3974077834455 262.17731361811093) rotate(0 9.23364866060308 6.961312951460059)" stroke="none"><path fill="#1e1e1e" d="M -0.15,-2.65 Q -0.15,-2.65 1.15,-2.73 2.46,-2.81 3.57,-2.87 4.67,-2.92 6.44,-3.01 8.20,-3.09 9.83,-3.14 11.46,-3.20 12.89,-3.25 14.31,-3.30 15.46,-3.34 16.61,-3.38 18.33,-3.03 20.05,-2.68 20.87,-1.11 21.69,0.46 21.73,1.72 21.76,2.98 21.78,4.24 21.80,5.51 21.73,6.81 21.67,8.10 21.28,9.45 20.89,10.79 20.33,11.72 19.77,12.65 18.86,13.62 17.96,14.58 16.34,15.75 14.72,16.92 14.21,17.16 13.69,17.39 13.13,17.44 12.56,17.50 12.01,17.37 11.46,17.25 10.98,16.95 10.50,16.66 10.14,16.22 9.77,15.79 9.57,15.26 9.36,14.73 9.34,14.17 9.31,13.60 9.47,13.06 9.63,12.51 9.95,12.05 10.27,11.58 10.72,11.24 11.18,10.91 11.71,10.73 12.25,10.55 12.82,10.56 13.38,10.56 13.92,10.75 14.45,10.94 14.90,11.28 15.35,11.63 15.66,12.10 15.97,12.57 16.12,13.12 16.27,13.66 16.23,14.23 16.19,14.79 15.98,15.32 15.77,15.84 15.40,16.27 15.03,16.70 14.54,16.98 14.05,17.27 13.50,17.39 12.94,17.50 12.38,17.44 11.82,17.37 11.31,17.13 10.80,16.89 10.39,16.49 9.98,16.10 9.72,15.60 9.46,15.10 9.38,14.54 9.29,13.98 9.39,13.42 9.48,12.86 9.75,12.37 10.02,11.87 10.44,11.48 10.85,11.10 10.85,11.10 10.85,11.10 12.46,9.92 14.07,8.75 14.57,7.65 15.08,6.56 15.11,5.44 15.14,4.32 15.29,2.73 15.43,1.14 16.65,2.02 17.87,2.91 16.71,2.86 15.54,2.80 14.25,2.76 12.95,2.71 11.44,2.66 9.93,2.61 8.26,2.57 6.59,2.52 4.69,2.51 2.78,2.50 1.46,2.58 0.15,2.65 -0.16,2.63 -0.48,2.61 -0.79,2.52 -1.09,2.42 -1.37,2.26 -1.64,2.09 -1.87,1.86 -2.09,1.63 -2.26,1.36 -2.43,1.08 -2.52,0.78 -2.62,0.47 -2.64,0.15 -2.65,-0.16 -2.60,-0.48 -2.54,-0.79 -2.40,-1.08 -2.27,-1.38 -2.07,-1.63 -1.88,-1.88 -1.62,-2.08 -1.37,-2.28 -1.08,-2.41 -0.78,-2.54 -0.47,-2.60 -0.15,-2.65 -0.15,-2.65 L -0.15,-2.65 Z"></path></g><g transform="translate(663.7669533646699 260.0492837330021) rotate(0 -8.818047887381681 15.540775209772619)" stroke="none"><path fill="#1e1e1e" d="M 0.63,2.46 Q 0.63,2.46 -0.26,2.73 -1.15,3.00 -1.93,4.22 -2.70,5.44 -3.75,7.32 -4.81,9.21 -5.40,10.45 -6.00,11.69 -6.54,12.85 -7.09,14.00 -7.55,15.01 -8.01,16.03 -8.57,17.18 -9.12,18.34 -9.59,19.31 -10.05,20.28 -10.51,21.39 -10.97,22.50 -11.17,22.94 -11.37,23.39 -11.58,23.68 -11.79,23.98 -12.06,24.22 -12.33,24.46 -12.65,24.63 -12.97,24.79 -13.32,24.88 -13.67,24.96 -14.03,24.96 -14.39,24.96 -14.74,24.87 -15.09,24.79 -15.41,24.62 -15.73,24.45 -16.00,24.21 -16.27,23.97 -16.47,23.67 -16.68,23.37 -16.80,23.04 -16.93,22.70 -16.97,22.34 -17.01,21.98 -16.97,21.62 -16.93,21.27 -16.80,20.93 -16.67,20.59 -16.56,22.15 -16.45,23.71 -17.04,22.37 -17.63,21.02 -18.19,19.89 -18.74,18.76 -19.40,17.52 -20.06,16.29 -20.67,15.16 -21.27,14.02 -21.91,12.82 -22.54,11.63 -22.29,10.42 -22.04,9.21 -21.25,8.30 -20.45,7.39 -19.25,7.23 -18.05,7.07 -16.02,8.27 -13.98,9.48 -12.84,10.52 -11.69,11.57 -10.50,12.75 -9.30,13.93 -8.10,15.28 -6.89,16.62 -5.80,17.96 -4.71,19.30 -3.68,20.56 -2.65,21.82 -1.73,22.90 -0.81,23.98 -0.07,24.81 0.66,25.64 2.38,27.82 4.09,29.99 4.23,30.41 4.37,30.82 4.38,31.26 4.38,31.70 4.24,32.12 4.10,32.53 3.83,32.88 3.57,33.23 3.20,33.48 2.84,33.73 2.42,33.85 2.00,33.97 1.56,33.94 1.12,33.92 0.71,33.76 0.30,33.60 -0.02,33.31 -0.36,33.03 -0.59,32.65 -0.81,32.28 -0.91,31.85 -1.00,31.42 -0.96,30.98 -0.91,30.55 -0.73,30.15 -0.54,29.75 -0.24,29.43 0.05,29.11 0.44,28.90 0.82,28.70 1.26,28.62 1.69,28.55 2.12,28.62 2.56,28.69 2.95,28.90 3.33,29.10 3.64,29.42 3.94,29.74 4.13,30.14 4.31,30.54 4.36,30.97 4.41,31.41 4.31,31.84 4.22,32.27 3.99,32.64 3.77,33.02 3.43,33.31 3.10,33.59 2.69,33.75 2.28,33.92 1.85,33.94 1.41,33.97 0.98,33.85 0.56,33.73 0.20,33.49 -0.16,33.24 -0.42,32.89 -0.69,32.54 -0.69,32.54 -0.69,32.54 -2.01,30.79 -3.33,29.03 -4.02,28.17 -4.70,27.32 -5.62,26.26 -6.53,25.20 -7.64,24.02 -8.74,22.83 -9.81,21.70 -10.88,20.58 -12.07,19.51 -13.26,18.44 -14.51,17.47 -15.77,16.49 -16.90,14.85 -18.03,13.20 -17.16,11.42 -16.29,9.63 -15.65,10.88 -15.01,12.13 -14.37,13.39 -13.74,14.64 -13.07,16.10 -12.39,17.56 -12.15,18.75 -11.91,19.94 -11.64,21.66 -11.37,23.39 -11.58,23.68 -11.79,23.98 -12.06,24.22 -12.33,24.46 -12.65,24.63 -12.97,24.79 -13.32,24.88 -13.67,24.96 -14.03,24.96 -14.39,24.96 -14.74,24.87 -15.09,24.79 -15.41,24.62 -15.73,24.45 -16.00,24.21 -16.27,23.97 -16.47,23.67 -16.68,23.37 -16.80,23.04 -16.93,22.70 -16.97,22.34 -17.01,21.98 -16.97,21.62 -16.93,21.27 -16.80,20.93 -16.67,20.59 -16.20,19.84 -15.74,19.09 -14.93,17.52 -14.11,15.95 -13.58,14.81 -13.04,13.68 -12.55,12.66 -12.06,11.65 -11.54,10.54 -11.01,9.43 -10.41,8.01 -9.80,6.60 -8.64,4.58 -7.49,2.57 -6.64,1.26 -5.80,-0.05 -4.15,-1.06 -2.50,-2.06 -1.56,-2.26 -0.63,-2.46 -0.33,-2.50 -0.02,-2.54 0.27,-2.51 0.58,-2.47 0.87,-2.37 1.16,-2.26 1.41,-2.09 1.67,-1.92 1.87,-1.69 2.08,-1.46 2.22,-1.19 2.37,-0.92 2.44,-0.62 2.52,-0.33 2.52,-0.02 2.53,0.28 2.46,0.58 2.39,0.87 2.25,1.15 2.11,1.42 1.90,1.65 1.70,1.88 1.45,2.06 1.20,2.24 0.92,2.35 0.63,2.46 0.63,2.46 L 0.63,2.46 Z"></path></g><g stroke-linecap="round" transform="translate(157.4112853685038 884.6395235554228) rotate(0 203.4481229578771 151.6384839739094)"><path d="M32 0 M32 0 C121.21 0, 210.43 0, 374.9 0 M32 0 C166.44 0, 300.89 0, 374.9 0 M374.9 0 C396.23 0, 406.9 10.67, 406.9 32 M374.9 0 C396.23 0, 406.9 10.67, 406.9 32 M406.9 32 C406.9 108.98, 406.9 185.96, 406.9 271.28 M406.9 32 C406.9 81.5, 406.9 131, 406.9 271.28 M406.9 271.28 C406.9 292.61, 396.23 303.28, 374.9 303.28 M406.9 271.28 C406.9 292.61, 396.23 303.28, 374.9 303.28 M374.9 303.28 C257.05 303.28, 139.21 303.28, 32 303.28 M374.9 303.28 C237.78 303.28, 100.66 303.28, 32 303.28 M32 303.28 C10.67 303.28, 0 292.61, 0 271.28 M32 303.28 C10.67 303.28, 0 292.61, 0 271.28 M0 271.28 C0 183.01, 0 94.75, 0 32 M0 271.28 C0 197.8, 0 124.32, 0 32 M0 32 C0 10.67, 10.67 0, 32 0 M0 32 C0 10.67, 10.67 0, 32 0" stroke="#1e1e1e" stroke-width="1" fill="none"></path></g><g transform="translate(158.3425389529446 917.5258588142278) rotate(0 58.37459193874514 -15.675460645536077)" stroke="none"><path fill="#1e1e1e" d="M 0,-2.50 Q 0,-2.50 1.15,-2.53 2.31,-2.56 4.04,-2.63 5.76,-2.71 7.47,-2.78 9.17,-2.84 10.81,-2.89 12.44,-2.94 15.29,-2.79 18.15,-2.64 20.28,-2.47 22.42,-2.30 23.84,-2.32 25.26,-2.34 27.65,-2.20 30.04,-2.07 32.09,-1.99 34.13,-1.91 35.53,-1.97 36.94,-2.02 39.10,-1.93 41.26,-1.83 42.98,-1.85 44.71,-1.87 46.32,-1.90 47.94,-1.94 49.31,-1.99 50.69,-2.05 51.98,-2.11 53.27,-2.16 54.57,-2.21 55.87,-2.25 57.07,-2.30 58.27,-2.34 59.44,-2.38 60.60,-2.42 61.74,-2.46 62.88,-2.50 64.02,-2.53 65.16,-2.56 66.31,-2.58 67.45,-2.61 68.69,-2.62 69.93,-2.63 71.23,-2.64 72.54,-2.64 73.73,-2.65 74.91,-2.67 76.17,-2.67 77.43,-2.68 78.82,-2.67 80.20,-2.65 81.62,-2.64 83.03,-2.62 84.42,-2.62 85.80,-2.61 87.17,-2.61 88.54,-2.60 89.79,-2.61 91.05,-2.62 92.13,-2.64 93.20,-2.65 95.07,-2.56 96.95,-2.46 98.09,-2.48 99.22,-2.50 100.33,-2.55 101.43,-2.59 102.54,-2.63 103.64,-2.67 104.75,-2.71 105.86,-2.75 107.02,-2.79 108.18,-2.84 109.42,-2.89 110.65,-2.95 111.77,-2.98 112.88,-3.02 111.94,-2.31 110.99,-1.60 111.38,-2.64 111.78,-3.68 112.15,-4.98 112.52,-6.29 112.76,-7.43 113.00,-8.58 113.10,-10.23 113.21,-11.88 113.21,-13.01 113.22,-14.15 113.21,-15.24 113.21,-16.32 113.19,-17.63 113.18,-18.93 113.16,-20.23 113.14,-21.52 112.97,-22.60 112.81,-23.68 112.33,-24.64 111.86,-25.61 110.66,-28.54 109.47,-31.46 109.52,-32.06 109.58,-32.66 109.82,-33.21 110.07,-33.76 110.48,-34.20 110.88,-34.64 111.41,-34.93 111.94,-35.22 112.53,-35.33 113.12,-35.43 113.72,-35.34 114.31,-35.26 114.85,-34.98 115.38,-34.71 115.80,-34.28 116.22,-33.84 116.48,-33.30 116.74,-32.76 116.82,-32.16 116.89,-31.57 116.77,-30.98 116.65,-30.39 116.34,-29.87 116.04,-29.35 115.59,-28.95 115.13,-28.56 114.58,-28.33 114.02,-28.10 113.42,-28.06 112.82,-28.02 112.24,-28.17 111.66,-28.32 111.16,-28.65 110.65,-28.98 110.28,-29.46 109.91,-29.93 109.71,-30.50 109.51,-31.07 109.51,-31.67 109.50,-32.27 109.68,-32.84 109.87,-33.41 110.22,-33.90 110.58,-34.38 111.08,-34.72 111.57,-35.07 112.15,-35.24 112.72,-35.41 113.32,-35.38 113.92,-35.36 114.49,-35.14 115.05,-34.93 115.51,-34.54 115.97,-34.16 116.29,-33.65 116.61,-33.14 116.75,-32.55 116.88,-31.97 116.88,-31.97 116.88,-31.97 117.35,-30.97 117.81,-29.96 118.41,-28.99 119.00,-28.01 119.38,-26.81 119.75,-25.61 119.97,-24.30 120.19,-23.00 120.26,-21.79 120.33,-20.58 120.31,-19.37 120.30,-18.15 120.29,-16.69 120.27,-15.22 120.26,-14.09 120.25,-12.96 120.23,-11.64 120.20,-10.32 120.06,-8.79 119.91,-7.26 119.61,-5.82 119.31,-4.38 118.92,-2.93 118.52,-1.49 117.85,0.11 117.18,1.71 116.38,2.54 115.58,3.37 113.87,3.63 112.16,3.89 111.02,3.85 109.88,3.81 108.72,3.75 107.57,3.70 106.16,3.65 104.76,3.60 103.64,3.56 102.53,3.52 101.40,3.47 100.27,3.42 99.05,3.34 97.82,3.26 96.35,3.08 94.88,2.90 92.97,2.76 91.05,2.62 89.79,2.61 88.54,2.60 87.17,2.61 85.80,2.61 84.42,2.62 83.03,2.62 81.62,2.64 80.20,2.65 78.82,2.67 77.43,2.68 76.17,2.67 74.91,2.67 73.73,2.65 72.54,2.64 71.23,2.64 69.93,2.63 68.69,2.62 67.45,2.61 66.31,2.58 65.16,2.56 64.02,2.53 62.88,2.50 61.74,2.46 60.60,2.42 59.44,2.38 58.27,2.34 57.07,2.30 55.87,2.25 54.57,2.21 53.27,2.16 51.98,2.11 50.69,2.05 49.31,1.99 47.94,1.94 46.32,1.90 44.71,1.87 42.98,1.85 41.26,1.83 39.10,1.93 36.94,2.02 35.53,1.97 34.13,1.91 32.09,1.99 30.04,2.07 27.65,2.20 25.26,2.34 23.84,2.32 22.42,2.30 20.28,2.47 18.15,2.64 15.29,2.79 12.44,2.94 10.81,2.89 9.17,2.84 7.47,2.78 5.76,2.71 4.04,2.63 2.31,2.56 1.15,2.53 0,2.50 -0.29,2.46 -0.59,2.42 -0.88,2.32 -1.16,2.21 -1.41,2.04 -1.65,1.87 -1.85,1.64 -2.05,1.42 -2.19,1.15 -2.33,0.88 -2.41,0.59 -2.48,0.30 -2.48,-0.00 -2.48,-0.30 -2.41,-0.59 -2.33,-0.88 -2.19,-1.15 -2.05,-1.42 -1.85,-1.64 -1.65,-1.87 -1.41,-2.04 -1.16,-2.21 -0.88,-2.32 -0.59,-2.42 -0.29,-2.46 0.00,-2.50 0.00,-2.50 L 0,-2.50 Z"></path></g><g transform="translate(560.5017056850345 1155.0994230399665) rotate(0 -67.71214079265366 17.33978781607766)" stroke="none"><path fill="#1e1e1e" d="M 0,1.69 Q 0,1.69 -1.27,1.78 -2.54,1.87 -4.22,1.89 -5.91,1.91 -7.88,1.87 -9.86,1.83 -12.27,1.76 -14.68,1.69 -16.99,1.64 -19.30,1.58 -21.32,1.57 -23.34,1.56 -25.71,1.53 -28.09,1.49 -30.74,1.47 -33.38,1.44 -35.81,1.42 -38.24,1.41 -40.37,1.39 -42.51,1.38 -44.52,1.39 -46.54,1.41 -48.54,1.43 -50.54,1.44 -52.57,1.45 -54.61,1.45 -56.65,1.45 -58.70,1.45 -60.92,1.43 -63.14,1.41 -65.29,1.40 -67.44,1.38 -69.38,1.41 -71.32,1.45 -73.17,1.49 -75.01,1.53 -76.75,1.58 -78.48,1.63 -80.06,1.70 -81.64,1.76 -83.00,1.84 -84.37,1.91 -85.46,1.99 -86.55,2.07 -88.18,2.21 -89.82,2.35 -91.29,2.46 -92.77,2.57 -93.97,2.65 -95.17,2.74 -96.29,2.80 -97.41,2.87 -98.49,2.93 -99.57,2.99 -100.71,3.05 -101.85,3.11 -102.93,3.16 -104.01,3.22 -105.41,3.26 -106.80,3.30 -108.03,3.32 -109.26,3.34 -110.46,3.35 -111.66,3.37 -112.87,3.40 -114.08,3.43 -115.48,3.47 -116.88,3.51 -118.21,3.52 -119.54,3.54 -121.02,3.55 -122.50,3.56 -123.82,3.57 -125.14,3.58 -126.68,3.59 -128.23,3.59 -129.44,3.60 -130.65,3.61 -130.32,5.21 -130.00,6.81 -130.18,8.89 -130.37,10.96 -130.42,12.06 -130.46,13.15 -130.50,14.27 -130.54,15.39 -130.56,16.51 -130.59,17.63 -130.65,18.71 -130.71,19.79 -130.85,21.46 -130.98,23.13 -131.17,24.75 -131.36,26.36 -131.47,27.68 -131.57,29.00 -131.67,30.21 -131.77,31.43 -131.90,33.03 -132.04,34.62 -132.13,35.16 -132.22,35.70 -132.47,36.19 -132.73,36.67 -133.13,37.04 -133.52,37.42 -134.02,37.65 -134.52,37.88 -135.06,37.94 -135.60,38.00 -136.14,37.88 -136.67,37.76 -137.14,37.48 -137.61,37.20 -137.96,36.78 -138.32,36.36 -138.52,35.86 -138.72,35.35 -138.75,34.80 -138.78,34.26 -138.63,33.73 -138.49,33.20 -138.18,32.75 -137.87,32.30 -137.44,31.97 -137.00,31.64 -136.48,31.46 -135.96,31.29 -135.42,31.29 -134.87,31.29 -134.35,31.46 -133.84,31.64 -133.40,31.97 -132.97,32.30 -132.66,32.75 -132.35,33.21 -132.21,33.73 -132.06,34.26 -132.09,34.81 -132.12,35.35 -132.32,35.86 -132.53,36.37 -132.88,36.78 -133.23,37.20 -133.70,37.48 -134.17,37.76 -134.70,37.88 -135.24,38.00 -135.78,37.94 -136.32,37.88 -136.82,37.65 -137.32,37.42 -137.71,37.04 -138.11,36.67 -138.37,36.18 -138.62,35.70 -138.71,35.16 -138.80,34.62 -138.80,34.62 -138.80,34.62 -138.61,32.39 -138.42,30.16 -138.19,28.64 -137.97,27.13 -137.80,25.58 -137.62,24.03 -137.47,22.53 -137.31,21.02 -137.19,19.32 -137.08,17.61 -137.10,16.48 -137.12,15.35 -137.14,14.20 -137.17,13.06 -137.19,11.90 -137.20,10.74 -137.20,9.55 -137.19,8.36 -137.08,6.30 -136.97,4.24 -136.90,2.55 -136.83,0.86 -136.47,-0.36 -136.11,-1.60 -134.47,-2.62 -132.83,-3.64 -131.74,-3.63 -130.65,-3.61 -129.44,-3.60 -128.23,-3.59 -126.68,-3.59 -125.14,-3.58 -123.82,-3.57 -122.50,-3.56 -121.02,-3.55 -119.54,-3.54 -118.21,-3.52 -116.88,-3.51 -115.48,-3.47 -114.08,-3.43 -112.87,-3.40 -111.66,-3.37 -110.46,-3.35 -109.26,-3.34 -108.03,-3.32 -106.80,-3.30 -105.41,-3.26 -104.01,-3.22 -102.93,-3.16 -101.85,-3.11 -100.71,-3.05 -99.57,-2.99 -98.49,-2.93 -97.41,-2.87 -96.29,-2.80 -95.17,-2.74 -93.97,-2.65 -92.77,-2.57 -91.29,-2.46 -89.82,-2.35 -88.18,-2.21 -86.55,-2.07 -85.46,-1.99 -84.37,-1.91 -83.00,-1.84 -81.64,-1.76 -80.06,-1.70 -78.48,-1.63 -76.75,-1.58 -75.01,-1.53 -73.17,-1.49 -71.32,-1.45 -69.38,-1.41 -67.44,-1.38 -65.29,-1.40 -63.14,-1.41 -60.92,-1.43 -58.70,-1.45 -56.65,-1.45 -54.61,-1.45 -52.57,-1.45 -50.54,-1.44 -48.54,-1.43 -46.54,-1.41 -44.52,-1.39 -42.51,-1.38 -40.37,-1.39 -38.24,-1.41 -35.81,-1.42 -33.38,-1.44 -30.74,-1.47 -28.09,-1.49 -25.71,-1.53 -23.34,-1.56 -21.32,-1.57 -19.30,-1.58 -16.99,-1.64 -14.68,-1.69 -12.27,-1.76 -9.86,-1.83 -7.88,-1.87 -5.91,-1.91 -4.22,-1.89 -2.54,-1.87 -1.27,-1.78 0,-1.69 0.20,-1.66 0.40,-1.64 0.59,-1.56 0.78,-1.49 0.95,-1.38 1.12,-1.26 1.25,-1.11 1.39,-0.96 1.48,-0.77 1.58,-0.59 1.62,-0.40 1.67,-0.20 1.67,0.00 1.67,0.20 1.62,0.40 1.58,0.59 1.48,0.78 1.39,0.96 1.25,1.11 1.12,1.26 0.95,1.38 0.78,1.49 0.59,1.56 0.40,1.64 0.20,1.66 -0.00,1.69 -0.00,1.69 L 0,1.69 Z"></path></g><g transform="translate(261.3999862459688 1379.6238926176702) rotate(0 43.5400390625 11.5)"><text x="0" y="0" font-family="Helvetica, Segoe UI Emoji" font-size="20px" fill="#1e1e1e" text-anchor="start" style="white-space: pre;" direction="ltr" dominant-baseline="text-before-edge">Transition</text></g><g stroke-linecap="round"><g transform="translate(285.6549091498161 1415.8196414410195) rotate(0 -81.35385135812066 42.38358255798448)"><path d="M0 0 C-27.12 14.13, -135.59 70.64, -162.71 84.77 M0 0 C-27.12 14.13, -135.59 70.64, -162.71 84.77" stroke="#1e1e1e" stroke-width="1" fill="none"></path></g><g transform="translate(285.6549091498161 1415.8196414410195) rotate(0 -81.35385135812066 42.38358255798448)"><path d="M-142.45 62.64 C-148.13 68.84, -153.81 75.05, -162.71 84.77 M-142.45 62.64 C-148.08 68.8, -153.72 74.95, -162.71 84.77" stroke="#1e1e1e" stroke-width="1" fill="none"></path></g><g transform="translate(285.6549091498161 1415.8196414410195) rotate(0 -81.35385135812066 42.38358255798448)"><path d="M-132.97 80.84 C-141.3 81.94, -149.64 83.04, -162.71 84.77 M-132.97 80.84 C-141.24 81.93, -149.52 83.03, -162.71 84.77" stroke="#1e1e1e" stroke-width="1" fill="none"></path></g></g><mask></mask></svg>